<ttFont>
    <TTGlyph name=".notdef" xMin="50" yMin="-250" xMax="450" yMax="750">
      <contour>
        <pt x="50" y="-250" on="1"/>
        <pt x="450" y="-250" on="1"/>
        <pt x="450" y="750" on="1"/>
        <pt x="50" y="750" on="1"/>
      </contour>
      <contour>
        <pt x="100" y="-200" on="1"/>
        <pt x="100" y="700" on="1"/>
        <pt x="400" y="700" on="1"/>
        <pt x="400" y="-200" on="1"/>
      </contour>
    </TTGlyph>
    <TTGlyph name="Euro" xMin="19" yMin="-31" xMax="519" yMax="633">
      <contour>
        <pt x="19" y="210" on="1"/>
        <pt x="39" y="289" on="1"/>
        <pt x="103" y="289" on="1"/>
        <pt x="102" y="301" on="0"/>
        <pt x="102" y="313" on="1"/>
        <pt x="102" y="316" on="0"/>
        <pt x="102" y="319" on="1"/>
        <pt x="51" y="319" on="1"/>
        <pt x="71" y="398" on="1"/>
        <pt x="114" y="398" on="1"/>
        <pt x="136" y="473" on="0"/>
        <pt x="252" y="578" on="0"/>
        <pt x="420" y="633" on="0"/>
        <pt x="519" y="633" on="1"/>
        <pt x="519" y="457" on="1"/>
        <pt x="437" y="457" on="0"/>
        <pt x="328" y="426" on="0"/>
        <pt x="298" y="398" on="1"/>
        <pt x="483" y="398" on="1"/>
        <pt x="463" y="319" on="1"/>
        <pt x="263" y="319" on="1"/>
        <pt x="263" y="316" on="0"/>
        <pt x="263" y="313" on="1"/>
        <pt x="263" y="300" on="0"/>
        <pt x="265" y="289" on="1"/>
        <pt x="455" y="289" on="1"/>
        <pt x="435" y="210" on="1"/>
        <pt x="302" y="210" on="1"/>
        <pt x="364" y="146" on="0"/>
        <pt x="519" y="145" on="1"/>
        <pt x="519" y="-31" on="1"/>
        <pt x="424" y="-31" on="0"/>
        <pt x="259" y="25" on="0"/>
        <pt x="142" y="133" on="0"/>
        <pt x="117" y="210" on="1"/>
      </contour>
    </TTGlyph>
    <TTGlyph name="arrowboth" xMin="7" yMin="-13" xMax="977" yMax="570">
      <contour>
        <pt x="300" y="-13" on="1"/>
        <pt x="7" y="278" on="1"/>
        <pt x="301" y="570" on="1"/>
        <pt x="425" y="454" on="1"/>
        <pt x="324" y="359" on="1"/>
        <pt x="661" y="359" on="1"/>
        <pt x="560" y="454" on="1"/>
        <pt x="684" y="570" on="1"/>
        <pt x="977" y="278" on="1"/>
        <pt x="684" y="-13" on="1"/>
        <pt x="560" y="103" on="1"/>
        <pt x="660" y="198" on="1"/>
        <pt x="324" y="198" on="1"/>
        <pt x="424" y="103" on="1"/>
      </contour>
    </TTGlyph>
    <TTGlyph name="arrowdown" xMin="28" yMin="-100" xMax="628" yMax="556">
      <contour>
        <pt x="328" y="-100" on="1"/>
        <pt x="28" y="203" on="1"/>
        <pt x="143" y="327" on="1"/>
        <pt x="247" y="217" on="1"/>
        <pt x="247" y="556" on="1"/>
        <pt x="408" y="556" on="1"/>
        <pt x="408" y="216" on="1"/>
        <pt x="512" y="326" on="1"/>
        <pt x="628" y="202" on="1"/>
      </contour>
    </TTGlyph>
    <TTGlyph name="arrowleft" xMin="6" yMin="-14" xMax="662" yMax="586">
      <contour>
        <pt x="308" y="-14" on="1"/>
        <pt x="6" y="286" on="1"/>
        <pt x="308" y="586" on="1"/>
        <pt x="432" y="471" on="1"/>
        <pt x="323" y="367" on="1"/>
        <pt x="662" y="367" on="1"/>
        <pt x="662" y="206" on="1"/>
        <pt x="322" y="206" on="1"/>
        <pt x="432" y="101" on="1"/>
      </contour>
    </TTGlyph>
    <TTGlyph name="arrowright" xMin="16" yMin="-14" xMax="672" yMax="586">
      <contour>
        <pt x="16" y="206" on="1"/>
        <pt x="16" y="367" on="1"/>
        <pt x="356" y="367" on="1"/>
        <pt x="246" y="471" on="1"/>
        <pt x="370" y="586" on="1"/>
        <pt x="672" y="287" on="1"/>
        <pt x="370" y="-14" on="1"/>
        <pt x="245" y="101" on="1"/>
        <pt x="355" y="206" on="1"/>
      </contour>
    </TTGlyph>
    <TTGlyph name="arrowup" xMin="28" yMin="0" xMax="628" yMax="656">
      <contour>
        <pt x="247" y="0" on="1"/>
        <pt x="247" y="339" on="1"/>
        <pt x="143" y="230" on="1"/>
        <pt x="28" y="354" on="1"/>
        <pt x="327" y="656" on="1"/>
        <pt x="628" y="353" on="1"/>
        <pt x="512" y="229" on="1"/>
        <pt x="408" y="339" on="1"/>
        <pt x="408" y="0" on="1"/>
      </contour>
    </TTGlyph>
    <TTGlyph name="arrowupdn" xMin="37" yMin="-156" xMax="574" yMax="717">
      <contour>
        <pt x="306" y="-156" on="1"/>
        <pt x="37" y="115" on="1"/>
        <pt x="152" y="239" on="1"/>
        <pt x="225" y="161" on="1"/>
        <pt x="225" y="400" on="1"/>
        <pt x="152" y="322" on="1"/>
        <pt x="37" y="446" on="1"/>
        <pt x="225" y="636" on="1"/>
        <pt x="225" y="638" on="1"/>
        <pt x="227" y="638" on="1"/>
        <pt x="305" y="717" on="1"/>
        <pt x="383" y="638" on="1"/>
        <pt x="386" y="638" on="1"/>
        <pt x="386" y="635" on="1"/>
        <pt x="574" y="446" on="1"/>
        <pt x="459" y="322" on="1"/>
        <pt x="386" y="399" on="1"/>
        <pt x="386" y="161" on="1"/>
        <pt x="459" y="239" on="1"/>
        <pt x="574" y="115" on="1"/>
      </contour>
    </TTGlyph>
    <TTGlyph name="asciicircum" xMin="10" yMin="271" xMax="556" yMax="621">
      <contour>
        <pt x="10" y="271" on="1"/>
        <pt x="231" y="621" on="1"/>
        <pt x="330" y="621" on="1"/>
        <pt x="556" y="271" on="1"/>
        <pt x="361" y="271" on="1"/>
        <pt x="282" y="397" on="1"/>
        <pt x="204" y="271" on="1"/>
      </contour>
    </TTGlyph>
    <TTGlyph name="asterisk" xMin="21" yMin="258" xMax="458" yMax="671">
      <contour>
        <pt x="295" y="370" on="1"/>
        <pt x="320" y="258" on="1"/>
        <pt x="160" y="258" on="1"/>
        <pt x="183" y="364" on="1"/>
        <pt x="100" y="289" on="1"/>
        <pt x="21" y="427" on="1"/>
        <pt x="135" y="463" on="1"/>
        <pt x="21" y="499" on="1"/>
        <pt x="100" y="637" on="1"/>
        <pt x="186" y="558" on="1"/>
        <pt x="160" y="671" on="1"/>
        <pt x="320" y="671" on="1"/>
        <pt x="292" y="553" on="1"/>
        <pt x="378" y="634" on="1"/>
        <pt x="458" y="495" on="1"/>
        <pt x="354" y="463" on="1"/>
        <pt x="458" y="432" on="1"/>
        <pt x="377" y="293" on="1"/>
      </contour>
    </TTGlyph>
    <TTGlyph name="backslash" xMin="20" yMin="-185" xMax="463" yMax="730">
      <contour>
        <pt x="293" y="-185" on="1"/>
        <pt x="20" y="730" on="1"/>
        <pt x="190" y="730" on="1"/>
        <pt x="463" y="-185" on="1"/>
      </contour>
    </TTGlyph>
    <TTGlyph name="bar" xMin="62" yMin="12" xMax="185" yMax="488">
      <contour>
        <pt x="185" y="12" on="1"/>
        <pt x="62" y="12" on="1"/>
        <pt x="62" y="488" on="1"/>
        <pt x="185" y="488" on="1"/>
      </contour>
    </TTGlyph>
    <TTGlyph name="braceleft" xMin="12" yMin="-241" xMax="370" yMax="741">
      <contour>
        <pt x="359" y="-241" on="1"/>
        <pt x="228" y="-241" on="0"/>
        <pt x="103" y="-107" on="0"/>
        <pt x="98" y="34" on="1"/>
        <pt x="98" y="85" on="1"/>
        <pt x="98" y="119" on="0"/>
        <pt x="49" y="162" on="0"/>
        <pt x="12" y="162" on="1"/>
        <pt x="12" y="337" on="1"/>
        <pt x="61" y="337" on="0"/>
        <pt x="98" y="374" on="0"/>
        <pt x="98" y="403" on="1"/>
        <pt x="98" y="462" on="1"/>
        <pt x="98" y="601" on="0"/>
        <pt x="224" y="741" on="0"/>
        <pt x="359" y="741" on="1"/>
        <pt x="370" y="741" on="1"/>
        <pt x="370" y="566" on="1"/>
        <pt x="310" y="566" on="0"/>
        <pt x="260" y="513" on="0"/>
        <pt x="260" y="458" on="1"/>
        <pt x="260" y="411" on="1"/>
        <pt x="260" y="391" on="0"/>
        <pt x="247" y="338" on="0"/>
        <pt x="219" y="288" on="0"/>
        <pt x="175" y="254" on="0"/>
        <pt x="142" y="252" on="1"/>
        <pt x="186" y="249" on="0"/>
        <pt x="238" y="200" on="0"/>
        <pt x="261" y="127" on="0"/>
        <pt x="260" y="89" on="1"/>
        <pt x="260" y="32" on="1"/>
        <pt x="259" y="-22" on="0"/>
        <pt x="309" y="-66" on="0"/>
        <pt x="370" y="-66" on="1"/>
        <pt x="370" y="-241" on="1"/>
      </contour>
    </TTGlyph>
    <TTGlyph name="braceright" xMin="17" yMin="-241" xMax="374" yMax="741">
      <contour>
        <pt x="17" y="-241" on="1"/>
        <pt x="17" y="-66" on="1"/>
        <pt x="78" y="-66" on="0"/>
        <pt x="128" y="-22" on="0"/>
        <pt x="127" y="32" on="1"/>
        <pt x="126" y="89" on="1"/>
        <pt x="126" y="127" on="0"/>
        <pt x="149" y="200" on="0"/>
        <pt x="201" y="249" on="0"/>
        <pt x="244" y="252" on="1"/>
        <pt x="212" y="254" on="0"/>
        <pt x="167" y="288" on="0"/>
        <pt x="140" y="338" on="0"/>
        <pt x="127" y="391" on="0"/>
        <pt x="127" y="411" on="1"/>
        <pt x="127" y="458" on="1"/>
        <pt x="127" y="513" on="0"/>
        <pt x="77" y="566" on="0"/>
        <pt x="17" y="566" on="1"/>
        <pt x="17" y="741" on="1"/>
        <pt x="28" y="741" on="1"/>
        <pt x="163" y="741" on="0"/>
        <pt x="289" y="601" on="0"/>
        <pt x="289" y="462" on="1"/>
        <pt x="289" y="403" on="1"/>
        <pt x="289" y="374" on="0"/>
        <pt x="326" y="337" on="0"/>
        <pt x="374" y="337" on="1"/>
        <pt x="374" y="162" on="1"/>
        <pt x="338" y="162" on="0"/>
        <pt x="289" y="119" on="0"/>
        <pt x="289" y="85" on="1"/>
        <pt x="289" y="34" on="1"/>
        <pt x="284" y="-107" on="0"/>
        <pt x="158" y="-241" on="0"/>
        <pt x="28" y="-241" on="1"/>
      </contour>
    </TTGlyph>
    <TTGlyph name="bracketleft" xMin="19" yMin="-241" xMax="266" yMax="741">
      <contour>
        <pt x="19" y="-241" on="1"/>
        <pt x="19" y="741" on="1"/>
        <pt x="266" y="741" on="1"/>
        <pt x="266" y="565" on="1"/>
        <pt x="181" y="565" on="1"/>
        <pt x="181" y="-65" on="1"/>
        <pt x="266" y="-65" on="1"/>
        <pt x="266" y="-241" on="1"/>
      </contour>
    </TTGlyph>
    <TTGlyph name="bracketright" xMin="17" yMin="-241" xMax="263" yMax="741">
      <contour>
        <pt x="17" y="-241" on="1"/>
        <pt x="17" y="-66" on="1"/>
        <pt x="101" y="-66" on="1"/>
        <pt x="101" y="565" on="1"/>
        <pt x="17" y="565" on="1"/>
        <pt x="17" y="741" on="1"/>
        <pt x="263" y="741" on="1"/>
        <pt x="263" y="-241" on="1"/>
      </contour>
    </TTGlyph>
    <TTGlyph name="bullet" xMin="21" yMin="122" xMax="332" yMax="433">
      <contour>
        <pt x="176" y="122" on="1"/>
        <pt x="108" y="122" on="0"/>
        <pt x="21" y="209" on="0"/>
        <pt x="21" y="277" on="1"/>
        <pt x="21" y="322" on="0"/>
        <pt x="61" y="393" on="0"/>
        <pt x="131" y="433" on="0"/>
        <pt x="176" y="433" on="1"/>
        <pt x="245" y="433" on="0"/>
        <pt x="332" y="345" on="0"/>
        <pt x="332" y="277" on="1"/>
        <pt x="332" y="209" on="0"/>
        <pt x="245" y="122" on="0"/>
      </contour>
    </TTGlyph>
    <TTGlyph name="colon" xMin="17" yMin="-9" xMax="219" yMax="489">
      <contour>
        <pt x="118" y="287" on="1"/>
        <pt x="73" y="287" on="0"/>
        <pt x="17" y="343" on="0"/>
        <pt x="17" y="388" on="1"/>
        <pt x="17" y="432" on="0"/>
        <pt x="74" y="489" on="0"/>
        <pt x="118" y="489" on="1"/>
        <pt x="163" y="489" on="0"/>
        <pt x="219" y="432" on="0"/>
        <pt x="219" y="388" on="1"/>
        <pt x="219" y="343" on="0"/>
        <pt x="163" y="287" on="0"/>
      </contour>
      <contour>
        <pt x="118" y="-9" on="1"/>
        <pt x="73" y="-9" on="0"/>
        <pt x="17" y="47" on="0"/>
        <pt x="17" y="92" on="1"/>
        <pt x="17" y="136" on="0"/>
        <pt x="74" y="193" on="0"/>
        <pt x="118" y="193" on="1"/>
        <pt x="163" y="193" on="0"/>
        <pt x="219" y="136" on="0"/>
        <pt x="219" y="92" on="1"/>
        <pt x="219" y="47" on="0"/>
        <pt x="163" y="-9" on="0"/>
      </contour>
    </TTGlyph>
    <TTGlyph name="comma" xMin="5" yMin="-115" xMax="228" yMax="181">
      <contour>
        <pt x="5" y="-115" on="1"/>
        <pt x="50" y="181" on="1"/>
        <pt x="228" y="181" on="1"/>
        <pt x="149" y="-115" on="1"/>
      </contour>
    </TTGlyph>
    <TTGlyph name="copyright" xMin="24" yMin="-121" xMax="824" yMax="691">
      <contour>
        <pt x="424" y="-121" on="1"/>
        <pt x="341" y="-121" on="0"/>
        <pt x="196" y="-58" on="0"/>
        <pt x="86" y="54" on="0"/>
        <pt x="24" y="201" on="0"/>
        <pt x="24" y="285" on="1"/>
        <pt x="24" y="369" on="0"/>
        <pt x="86" y="516" on="0"/>
        <pt x="196" y="628" on="0"/>
        <pt x="341" y="691" on="0"/>
        <pt x="424" y="691" on="1"/>
        <pt x="507" y="691" on="0"/>
        <pt x="652" y="628" on="0"/>
        <pt x="762" y="516" on="0"/>
        <pt x="824" y="369" on="0"/>
        <pt x="824" y="285" on="1"/>
        <pt x="824" y="201" on="0"/>
        <pt x="762" y="54" on="0"/>
        <pt x="652" y="-58" on="0"/>
        <pt x="507" y="-121" on="0"/>
      </contour>
      <contour>
        <pt x="424" y="6" on="1"/>
        <pt x="484" y="6" on="0"/>
        <pt x="587" y="49" on="0"/>
        <pt x="665" y="126" on="0"/>
        <pt x="709" y="227" on="0"/>
        <pt x="709" y="285" on="1"/>
        <pt x="709" y="343" on="0"/>
        <pt x="665" y="444" on="0"/>
        <pt x="587" y="521" on="0"/>
        <pt x="484" y="564" on="0"/>
        <pt x="424" y="564" on="1"/>
        <pt x="364" y="564" on="0"/>
        <pt x="261" y="521" on="0"/>
        <pt x="183" y="444" on="0"/>
        <pt x="139" y="343" on="0"/>
        <pt x="139" y="285" on="1"/>
        <pt x="139" y="227" on="0"/>
        <pt x="183" y="126" on="0"/>
        <pt x="261" y="49" on="0"/>
        <pt x="364" y="6" on="0"/>
      </contour>
      <contour>
        <pt x="427" y="67" on="1"/>
        <pt x="366" y="67" on="0"/>
        <pt x="269" y="125" on="0"/>
        <pt x="212" y="224" on="0"/>
        <pt x="212" y="285" on="1"/>
        <pt x="212" y="346" on="0"/>
        <pt x="269" y="445" on="0"/>
        <pt x="366" y="503" on="0"/>
        <pt x="427" y="503" on="1"/>
        <pt x="486" y="503" on="0"/>
        <pt x="585" y="444" on="0"/>
        <pt x="612" y="393" on="1"/>
        <pt x="504" y="327" on="1"/>
        <pt x="495" y="344" on="0"/>
        <pt x="451" y="369" on="0"/>
        <pt x="426" y="369" on="1"/>
        <pt x="388" y="369" on="0"/>
        <pt x="336" y="320" on="0"/>
        <pt x="336" y="285" on="1"/>
        <pt x="336" y="250" on="0"/>
        <pt x="388" y="201" on="0"/>
        <pt x="426" y="201" on="1"/>
        <pt x="452" y="201" on="0"/>
        <pt x="496" y="228" on="0"/>
        <pt x="505" y="247" on="1"/>
        <pt x="615" y="184" on="1"/>
        <pt x="588" y="130" on="0"/>
        <pt x="487" y="67" on="0"/>
      </contour>
    </TTGlyph>
    <TTGlyph name="degree" xMin="35" yMin="336" xMax="411" yMax="700">
      <contour>
        <pt x="223" y="336" on="1"/>
        <pt x="172" y="336" on="0"/>
        <pt x="86" y="386" on="0"/>
        <pt x="35" y="469" on="0"/>
        <pt x="35" y="519" on="1"/>
        <pt x="35" y="570" on="0"/>
        <pt x="86" y="652" on="0"/>
        <pt x="172" y="700" on="0"/>
        <pt x="223" y="700" on="1"/>
        <pt x="275" y="700" on="0"/>
        <pt x="360" y="652" on="0"/>
        <pt x="411" y="570" on="0"/>
        <pt x="411" y="519" on="1"/>
        <pt x="411" y="469" on="0"/>
        <pt x="360" y="386" on="0"/>
        <pt x="275" y="336" on="0"/>
      </contour>
      <contour>
        <pt x="223" y="461" on="1"/>
        <pt x="244" y="461" on="0"/>
        <pt x="275" y="495" on="0"/>
        <pt x="275" y="519" on="1"/>
        <pt x="275" y="543" on="0"/>
        <pt x="244" y="576" on="0"/>
        <pt x="223" y="576" on="1"/>
        <pt x="202" y="576" on="0"/>
        <pt x="170" y="543" on="0"/>
        <pt x="171" y="519" on="1"/>
        <pt x="172" y="495" on="0"/>
        <pt x="202" y="461" on="0"/>
      </contour>
    </TTGlyph>
    <TTGlyph name="divide" xMin="22" yMin="19" xMax="444" yMax="504">
      <contour>
        <pt x="233" y="329" on="1"/>
        <pt x="194" y="329" on="0"/>
        <pt x="145" y="378" on="0"/>
        <pt x="145" y="416" on="1"/>
        <pt x="145" y="455" on="0"/>
        <pt x="195" y="504" on="0"/>
        <pt x="233" y="504" on="1"/>
        <pt x="272" y="504" on="0"/>
        <pt x="321" y="455" on="0"/>
        <pt x="321" y="416" on="1"/>
        <pt x="321" y="378" on="0"/>
        <pt x="272" y="329" on="0"/>
      </contour>
      <contour>
        <pt x="22" y="219" on="1"/>
        <pt x="22" y="305" on="1"/>
        <pt x="444" y="305" on="1"/>
        <pt x="444" y="219" on="1"/>
      </contour>
      <contour>
        <pt x="233" y="19" on="1"/>
        <pt x="194" y="19" on="0"/>
        <pt x="145" y="68" on="0"/>
        <pt x="145" y="107" on="1"/>
        <pt x="145" y="146" on="0"/>
        <pt x="195" y="195" on="0"/>
        <pt x="233" y="195" on="1"/>
        <pt x="272" y="195" on="0"/>
        <pt x="321" y="146" on="0"/>
        <pt x="321" y="107" on="1"/>
        <pt x="321" y="68" on="0"/>
        <pt x="272" y="19" on="0"/>
      </contour>
    </TTGlyph>
    <TTGlyph name="dollar" xMin="31" yMin="-100" xMax="637" yMax="730">
      <contour>
        <pt x="257" y="-100" on="1"/>
        <pt x="257" y="-23" on="1"/>
        <pt x="203" y="-19" on="0"/>
        <pt x="107" y="5" on="0"/>
        <pt x="62" y="26" on="1"/>
        <pt x="77" y="197" on="1"/>
        <pt x="114" y="177" on="0"/>
        <pt x="208" y="156" on="0"/>
        <pt x="257" y="152" on="1"/>
        <pt x="257" y="237" on="1"/>
        <pt x="191" y="250" on="0"/>
        <pt x="89" y="306" on="0"/>
        <pt x="31" y="389" on="0"/>
        <pt x="31" y="444" on="1"/>
        <pt x="31" y="494" on="0"/>
        <pt x="89" y="570" on="0"/>
        <pt x="191" y="620" on="0"/>
        <pt x="257" y="628" on="1"/>
        <pt x="257" y="730" on="1"/>
        <pt x="419" y="730" on="1"/>
        <pt x="419" y="624" on="1"/>
        <pt x="461" y="615" on="0"/>
        <pt x="547" y="587" on="0"/>
        <pt x="592" y="571" on="1"/>
        <pt x="576" y="402" on="1"/>
        <pt x="526" y="416" on="0"/>
        <pt x="450" y="439" on="0"/>
        <pt x="419" y="446" on="1"/>
        <pt x="419" y="367" on="1"/>
        <pt x="482" y="352" on="0"/>
        <pt x="580" y="299" on="0"/>
        <pt x="637" y="221" on="0"/>
        <pt x="637" y="168" on="1"/>
        <pt x="637" y="125" on="0"/>
        <pt x="582" y="47" on="0"/>
        <pt x="484" y="-10" on="0"/>
        <pt x="419" y="-21" on="1"/>
        <pt x="419" y="-100" on="1"/>
      </contour>
      <contour>
        <pt x="186" y="427" on="1"/>
        <pt x="186" y="417" on="0"/>
        <pt x="227" y="403" on="0"/>
        <pt x="257" y="397" on="1"/>
        <pt x="257" y="453" on="1"/>
        <pt x="225" y="448" on="0"/>
        <pt x="186" y="434" on="0"/>
      </contour>
      <contour>
        <pt x="482" y="180" on="1"/>
        <pt x="482" y="188" on="0"/>
        <pt x="455" y="205" on="0"/>
        <pt x="419" y="213" on="1"/>
        <pt x="419" y="153" on="1"/>
        <pt x="448" y="157" on="0"/>
        <pt x="482" y="172" on="0"/>
      </contour>
    </TTGlyph>
    <TTGlyph name="eight" xMin="15" yMin="-25" xMax="565" yMax="627">
      <contour>
        <pt x="290" y="-25" on="1"/>
        <pt x="207" y="-25" on="0"/>
        <pt x="83" y="29" on="0"/>
        <pt x="15" y="123" on="0"/>
        <pt x="15" y="183" on="1"/>
        <pt x="15" y="231" on="0"/>
        <pt x="65" y="310" on="0"/>
        <pt x="112" y="334" on="1"/>
        <pt x="80" y="351" on="0"/>
        <pt x="51" y="409" on="0"/>
        <pt x="51" y="441" on="1"/>
        <pt x="51" y="486" on="0"/>
        <pt x="112" y="572" on="0"/>
        <pt x="220" y="627" on="0"/>
        <pt x="290" y="627" on="1"/>
        <pt x="360" y="627" on="0"/>
        <pt x="468" y="572" on="0"/>
        <pt x="530" y="486" on="0"/>
        <pt x="530" y="441" on="1"/>
        <pt x="530" y="409" on="0"/>
        <pt x="501" y="351" on="0"/>
        <pt x="468" y="334" on="1"/>
        <pt x="516" y="310" on="0"/>
        <pt x="565" y="231" on="0"/>
        <pt x="565" y="183" on="1"/>
        <pt x="565" y="123" on="0"/>
        <pt x="497" y="29" on="0"/>
        <pt x="374" y="-25" on="0"/>
      </contour>
      <contour>
        <pt x="290" y="377" on="1"/>
        <pt x="320" y="377" on="0"/>
        <pt x="354" y="404" on="0"/>
        <pt x="354" y="424" on="1"/>
        <pt x="354" y="440" on="0"/>
        <pt x="319" y="466" on="0"/>
        <pt x="290" y="466" on="1"/>
        <pt x="262" y="466" on="0"/>
        <pt x="227" y="440" on="0"/>
        <pt x="227" y="424" on="1"/>
        <pt x="227" y="404" on="0"/>
        <pt x="261" y="377" on="0"/>
      </contour>
      <contour>
        <pt x="290" y="136" on="1"/>
        <pt x="335" y="136" on="0"/>
        <pt x="389" y="180" on="0"/>
        <pt x="389" y="205" on="1"/>
        <pt x="389" y="234" on="0"/>
        <pt x="329" y="276" on="0"/>
        <pt x="290" y="276" on="1"/>
        <pt x="252" y="276" on="0"/>
        <pt x="191" y="234" on="0"/>
        <pt x="191" y="205" on="1"/>
        <pt x="191" y="180" on="0"/>
        <pt x="245" y="136" on="0"/>
      </contour>
    </TTGlyph>
    <TTGlyph name="emdash" xMin="29" yMin="187" xMax="692" yMax="333">
      <contour>
        <pt x="29" y="187" on="1"/>
        <pt x="29" y="333" on="1"/>
        <pt x="692" y="333" on="1"/>
        <pt x="692" y="187" on="1"/>
      </contour>
    </TTGlyph>
    <TTGlyph name="endash" xMin="29" yMin="187" xMax="494" yMax="333">
      <contour>
        <pt x="29" y="187" on="1"/>
        <pt x="29" y="333" on="1"/>
        <pt x="494" y="333" on="1"/>
        <pt x="494" y="187" on="1"/>
      </contour>
    </TTGlyph>
    <TTGlyph name="equal" xMin="22" yMin="97" xMax="449" yMax="438">
      <contour>
        <pt x="22" y="292" on="1"/>
        <pt x="22" y="438" on="1"/>
        <pt x="449" y="438" on="1"/>
        <pt x="449" y="292" on="1"/>
      </contour>
      <contour>
        <pt x="22" y="97" on="1"/>
        <pt x="22" y="242" on="1"/>
        <pt x="449" y="242" on="1"/>
        <pt x="449" y="97" on="1"/>
      </contour>
    </TTGlyph>
    <TTGlyph name="exclam" xMin="30" yMin="1" xMax="214" yMax="599">
      <contour>
        <pt x="58" y="223" on="1"/>
        <pt x="51" y="305" on="0"/>
        <pt x="41" y="424" on="0"/>
        <pt x="41" y="482" on="1"/>
        <pt x="41" y="599" on="1"/>
        <pt x="203" y="599" on="1"/>
        <pt x="203" y="482" on="1"/>
        <pt x="203" y="424" on="0"/>
        <pt x="192" y="305" on="0"/>
        <pt x="186" y="223" on="1"/>
      </contour>
      <contour>
        <pt x="106" y="7" on="1"/>
        <pt x="68" y="14" on="0"/>
        <pt x="30" y="69" on="0"/>
        <pt x="36" y="107" on="1"/>
        <pt x="43" y="145" on="0"/>
        <pt x="100" y="184" on="0"/>
        <pt x="137" y="178" on="1"/>
        <pt x="176" y="171" on="0"/>
        <pt x="214" y="114" on="0"/>
        <pt x="207" y="76" on="1"/>
        <pt x="200" y="38" on="0"/>
        <pt x="145" y="1" on="0"/>
      </contour>
    </TTGlyph>
    <TTGlyph name="five" xMin="8" yMin="-22" xMax="528" yMax="600">
      <contour>
        <pt x="266" y="-22" on="1"/>
        <pt x="200" y="-22" on="0"/>
        <pt x="75" y="-4" on="0"/>
        <pt x="8" y="13" on="1"/>
        <pt x="55" y="185" on="1"/>
        <pt x="132" y="170" on="0"/>
        <pt x="235" y="154" on="0"/>
        <pt x="266" y="154" on="1"/>
        <pt x="312" y="154" on="0"/>
        <pt x="367" y="181" on="0"/>
        <pt x="367" y="206" on="1"/>
        <pt x="367" y="231" on="0"/>
        <pt x="312" y="256" on="0"/>
        <pt x="266" y="256" on="1"/>
        <pt x="232" y="256" on="0"/>
        <pt x="174" y="254" on="0"/>
        <pt x="97" y="248" on="0"/>
        <pt x="36" y="241" on="1"/>
        <pt x="46" y="600" on="1"/>
        <pt x="474" y="600" on="1"/>
        <pt x="474" y="424" on="1"/>
        <pt x="193" y="424" on="1"/>
        <pt x="191" y="373" on="1"/>
        <pt x="219" y="374" on="0"/>
        <pt x="256" y="377" on="0"/>
        <pt x="266" y="377" on="1"/>
        <pt x="362" y="377" on="0"/>
        <pt x="477" y="334" on="0"/>
        <pt x="528" y="253" on="0"/>
        <pt x="528" y="197" on="1"/>
        <pt x="528" y="125" on="0"/>
        <pt x="459" y="27" on="0"/>
        <pt x="341" y="-22" on="0"/>
      </contour>
    </TTGlyph>
    <TTGlyph name="four" xMin="23" yMin="0" xMax="527" yMax="601">
      <contour>
        <pt x="329" y="0" on="1"/>
        <pt x="329" y="89" on="1"/>
        <pt x="24" y="88" on="1"/>
        <pt x="23" y="268" on="1"/>
        <pt x="281" y="601" on="1"/>
        <pt x="490" y="601" on="1"/>
        <pt x="490" y="265" on="1"/>
        <pt x="527" y="265" on="1"/>
        <pt x="527" y="89" on="1"/>
        <pt x="490" y="89" on="1"/>
        <pt x="490" y="0" on="1"/>
      </contour>
      <contour>
        <pt x="329" y="413" on="1"/>
        <pt x="208" y="265" on="1"/>
        <pt x="329" y="265" on="1"/>
      </contour>
    </TTGlyph>
    <TTGlyph name="greater" xMin="24" yMin="13" xMax="496" yMax="566">
      <contour>
        <pt x="86" y="13" on="1"/>
        <pt x="24" y="172" on="1"/>
        <pt x="280" y="291" on="1"/>
        <pt x="24" y="406" on="1"/>
        <pt x="86" y="566" on="1"/>
        <pt x="496" y="354" on="1"/>
        <pt x="496" y="230" on="1"/>
      </contour>
    </TTGlyph>
    <TTGlyph name="hyphen" xMin="31" yMin="187" xMax="399" yMax="333">
      <contour>
        <pt x="31" y="333" on="1"/>
        <pt x="399" y="333" on="1"/>
        <pt x="399" y="187" on="1"/>
        <pt x="31" y="187" on="1"/>
      </contour>
    </TTGlyph>
    <TTGlyph name="less" xMin="24" yMin="13" xMax="496" yMax="566">
      <contour>
        <pt x="433" y="13" on="1"/>
        <pt x="24" y="230" on="1"/>
        <pt x="24" y="354" on="1"/>
        <pt x="433" y="566" on="1"/>
        <pt x="495" y="406" on="1"/>
        <pt x="239" y="291" on="1"/>
        <pt x="496" y="172" on="1"/>
      </contour>
    </TTGlyph>
    <TTGlyph name="minus" xMin="25" yMin="188" xMax="444" yMax="333">
      <contour>
        <pt x="25" y="205" on="1"/>
        <pt x="115" y="333" on="1"/>
        <pt x="444" y="316" on="1"/>
        <pt x="354" y="188" on="1"/>
      </contour>
    </TTGlyph>
    <TTGlyph name="multiply" xMin="26" yMin="30" xMax="475" yMax="489">
      <contour>
        <pt x="138" y="30" on="1"/>
        <pt x="26" y="154" on="1"/>
        <pt x="133" y="260" on="1"/>
        <pt x="26" y="366" on="1"/>
        <pt x="138" y="489" on="1"/>
        <pt x="250" y="378" on="1"/>
        <pt x="363" y="489" on="1"/>
        <pt x="475" y="365" on="1"/>
        <pt x="368" y="260" on="1"/>
        <pt x="475" y="154" on="1"/>
        <pt x="363" y="31" on="1"/>
        <pt x="250" y="142" on="1"/>
      </contour>
    </TTGlyph>
    <TTGlyph name="nine" xMin="16" yMin="-42" xMax="532" yMax="629">
      <contour>
        <pt x="290" y="-42" on="1"/>
        <pt x="169" y="33" on="1"/>
        <pt x="194" y="61" on="0"/>
        <pt x="252" y="126" on="0"/>
        <pt x="279" y="163" on="1"/>
        <pt x="275" y="163" on="1"/>
        <pt x="202" y="163" on="0"/>
        <pt x="85" y="219" on="0"/>
        <pt x="16" y="323" on="0"/>
        <pt x="16" y="392" on="1"/>
        <pt x="16" y="454" on="0"/>
        <pt x="83" y="562" on="0"/>
        <pt x="199" y="629" on="0"/>
        <pt x="273" y="629" on="1"/>
        <pt x="344" y="629" on="0"/>
        <pt x="462" y="565" on="0"/>
        <pt x="532" y="449" on="0"/>
        <pt x="532" y="370" on="1"/>
        <pt x="532" y="369" on="0"/>
        <pt x="532" y="367" on="1"/>
        <pt x="531" y="320" on="0"/>
        <pt x="489" y="215" on="0"/>
        <pt x="419" y="107" on="0"/>
        <pt x="334" y="3" on="0"/>
      </contour>
      <contour>
        <pt x="275" y="339" on="1"/>
        <pt x="308" y="339" on="0"/>
        <pt x="352" y="354" on="0"/>
        <pt x="362" y="367" on="1"/>
        <pt x="362" y="370" on="1"/>
        <pt x="364" y="370" on="1"/>
        <pt x="371" y="380" on="0"/>
        <pt x="371" y="393" on="1"/>
        <pt x="371" y="418" on="0"/>
        <pt x="320" y="453" on="0"/>
        <pt x="273" y="453" on="1"/>
        <pt x="227" y="453" on="0"/>
        <pt x="178" y="416" on="0"/>
        <pt x="178" y="392" on="1"/>
        <pt x="178" y="371" on="0"/>
        <pt x="230" y="339" on="0"/>
      </contour>
    </TTGlyph>
    <TTGlyph name="notequal" xMin="22" yMin="36" xMax="449" yMax="502">
      <contour>
        <pt x="59" y="36" on="1"/>
        <pt x="85" y="97" on="1"/>
        <pt x="22" y="97" on="1"/>
        <pt x="22" y="242" on="1"/>
        <pt x="147" y="242" on="1"/>
        <pt x="168" y="292" on="1"/>
        <pt x="22" y="292" on="1"/>
        <pt x="22" y="438" on="1"/>
        <pt x="230" y="438" on="1"/>
        <pt x="257" y="502" on="1"/>
        <pt x="418" y="502" on="1"/>
        <pt x="391" y="438" on="1"/>
        <pt x="449" y="438" on="1"/>
        <pt x="449" y="292" on="1"/>
        <pt x="329" y="292" on="1"/>
        <pt x="308" y="242" on="1"/>
        <pt x="449" y="242" on="1"/>
        <pt x="449" y="97" on="1"/>
        <pt x="246" y="97" on="1"/>
        <pt x="220" y="36" on="1"/>
      </contour>
    </TTGlyph>
    <TTGlyph name="numbersign" xMin="26" yMin="-50" xMax="641" yMax="632">
      <contour>
        <pt x="26" y="79" on="1"/>
        <pt x="26" y="255" on="1"/>
        <pt x="118" y="255" on="1"/>
        <pt x="127" y="324" on="1"/>
        <pt x="26" y="324" on="1"/>
        <pt x="26" y="500" on="1"/>
        <pt x="153" y="500" on="1"/>
        <pt x="172" y="632" on="1"/>
        <pt x="335" y="632" on="1"/>
        <pt x="317" y="500" on="1"/>
        <pt x="398" y="500" on="1"/>
        <pt x="416" y="632" on="1"/>
        <pt x="580" y="632" on="1"/>
        <pt x="561" y="500" on="1"/>
        <pt x="641" y="500" on="1"/>
        <pt x="641" y="324" on="1"/>
        <pt x="536" y="324" on="1"/>
        <pt x="526" y="255" on="1"/>
        <pt x="641" y="255" on="1"/>
        <pt x="641" y="79" on="1"/>
        <pt x="501" y="79" on="1"/>
        <pt x="482" y="-50" on="1"/>
        <pt x="319" y="-50" on="1"/>
        <pt x="337" y="79" on="1"/>
        <pt x="256" y="79" on="1"/>
        <pt x="238" y="-50" on="1"/>
        <pt x="74" y="-50" on="1"/>
        <pt x="92" y="79" on="1"/>
      </contour>
      <contour>
        <pt x="281" y="255" on="1"/>
        <pt x="362" y="255" on="1"/>
        <pt x="372" y="324" on="1"/>
        <pt x="291" y="324" on="1"/>
      </contour>
    </TTGlyph>
    <TTGlyph name="one" xMin="26" yMin="0" xMax="339" yMax="622">
      <contour>
        <pt x="178" y="0" on="1"/>
        <pt x="178" y="384" on="1"/>
        <pt x="26" y="335" on="1"/>
        <pt x="26" y="532" on="1"/>
        <pt x="339" y="622" on="1"/>
        <pt x="339" y="0" on="1"/>
      </contour>
    </TTGlyph>
    <TTGlyph name="parenleft" xMin="16" yMin="-249" xMax="341" yMax="743">
      <contour>
        <pt x="192" y="-249" on="1"/>
        <pt x="147" y="-194" on="0"/>
        <pt x="66" y="-47" on="0"/>
        <pt x="16" y="138" on="0"/>
        <pt x="16" y="249" on="1"/>
        <pt x="16" y="359" on="0"/>
        <pt x="65" y="539" on="0"/>
        <pt x="144" y="684" on="0"/>
        <pt x="191" y="743" on="1"/>
        <pt x="341" y="671" on="1"/>
        <pt x="298" y="616" on="0"/>
        <pt x="224" y="492" on="0"/>
        <pt x="179" y="343" on="0"/>
        <pt x="179" y="249" on="1"/>
        <pt x="179" y="155" on="0"/>
        <pt x="224" y="2" on="0"/>
        <pt x="293" y="-117" on="0"/>
        <pt x="329" y="-158" on="1"/>
      </contour>
    </TTGlyph>
    <TTGlyph name="parenright" xMin="16" yMin="-249" xMax="341" yMax="743">
      <contour>
        <pt x="165" y="-249" on="1"/>
        <pt x="28" y="-158" on="1"/>
        <pt x="64" y="-117" on="0"/>
        <pt x="133" y="2" on="0"/>
        <pt x="178" y="155" on="0"/>
        <pt x="178" y="249" on="1"/>
        <pt x="178" y="343" on="0"/>
        <pt x="133" y="492" on="0"/>
        <pt x="59" y="616" on="0"/>
        <pt x="16" y="671" on="1"/>
        <pt x="166" y="743" on="1"/>
        <pt x="213" y="684" on="0"/>
        <pt x="292" y="539" on="0"/>
        <pt x="341" y="359" on="0"/>
        <pt x="341" y="249" on="1"/>
        <pt x="341" y="138" on="0"/>
        <pt x="291" y="-47" on="0"/>
        <pt x="210" y="-194" on="0"/>
      </contour>
    </TTGlyph>
    <TTGlyph name="percent" xMin="18" yMin="-112" xMax="990" yMax="691">
      <contour>
        <pt x="349" y="-112" on="1"/>
        <pt x="211" y="-24" on="1"/>
        <pt x="653" y="691" on="1"/>
        <pt x="791" y="603" on="1"/>
      </contour>
      <contour>
        <pt x="226" y="231" on="1"/>
        <pt x="168" y="231" on="0"/>
        <pt x="73" y="290" on="0"/>
        <pt x="18" y="388" on="0"/>
        <pt x="18" y="447" on="1"/>
        <pt x="18" y="506" on="0"/>
        <pt x="73" y="603" on="0"/>
        <pt x="168" y="662" on="0"/>
        <pt x="226" y="662" on="1"/>
        <pt x="284" y="662" on="0"/>
        <pt x="378" y="603" on="0"/>
        <pt x="433" y="506" on="0"/>
        <pt x="433" y="447" on="1"/>
        <pt x="433" y="388" on="0"/>
        <pt x="378" y="290" on="0"/>
        <pt x="284" y="231" on="0"/>
      </contour>
      <contour>
        <pt x="226" y="400" on="1"/>
        <pt x="251" y="400" on="0"/>
        <pt x="282" y="428" on="0"/>
        <pt x="282" y="447" on="1"/>
        <pt x="282" y="466" on="0"/>
        <pt x="251" y="493" on="0"/>
        <pt x="226" y="493" on="1"/>
        <pt x="200" y="493" on="0"/>
        <pt x="169" y="466" on="0"/>
        <pt x="169" y="447" on="1"/>
        <pt x="169" y="428" on="0"/>
        <pt x="201" y="400" on="0"/>
      </contour>
      <contour>
        <pt x="783" y="-71" on="1"/>
        <pt x="725" y="-71" on="0"/>
        <pt x="630" y="-13" on="0"/>
        <pt x="575" y="85" on="0"/>
        <pt x="575" y="144" on="1"/>
        <pt x="575" y="203" on="0"/>
        <pt x="630" y="301" on="0"/>
        <pt x="725" y="359" on="0"/>
        <pt x="783" y="359" on="1"/>
        <pt x="841" y="359" on="0"/>
        <pt x="935" y="301" on="0"/>
        <pt x="990" y="203" on="0"/>
        <pt x="990" y="144" on="1"/>
        <pt x="990" y="85" on="0"/>
        <pt x="935" y="-13" on="0"/>
        <pt x="841" y="-71" on="0"/>
      </contour>
      <contour>
        <pt x="783" y="97" on="1"/>
        <pt x="808" y="97" on="0"/>
        <pt x="839" y="125" on="0"/>
        <pt x="839" y="144" on="1"/>
        <pt x="839" y="163" on="0"/>
        <pt x="808" y="191" on="0"/>
        <pt x="783" y="191" on="1"/>
        <pt x="757" y="191" on="0"/>
        <pt x="726" y="163" on="0"/>
        <pt x="726" y="144" on="1"/>
        <pt x="726" y="125" on="0"/>
        <pt x="757" y="97" on="0"/>
      </contour>
    </TTGlyph>
    <TTGlyph name="period" xMin="17" yMin="-9" xMax="219" yMax="193">
      <contour>
        <pt x="17" y="92" on="1"/>
        <pt x="17" y="136" on="0"/>
        <pt x="74" y="193" on="0"/>
        <pt x="118" y="193" on="1"/>
        <pt x="163" y="193" on="0"/>
        <pt x="219" y="136" on="0"/>
        <pt x="219" y="92" on="1"/>
        <pt x="219" y="47" on="0"/>
        <pt x="163" y="-9" on="0"/>
        <pt x="118" y="-9" on="1"/>
        <pt x="73" y="-9" on="0"/>
        <pt x="17" y="47" on="0"/>
      </contour>
    </TTGlyph>
    <TTGlyph name="periodcentered" xMin="26" yMin="188" xMax="210" yMax="372">
      <contour>
        <pt x="103" y="195" on="1"/>
        <pt x="64" y="201" on="0"/>
        <pt x="26" y="257" on="0"/>
        <pt x="33" y="295" on="1"/>
        <pt x="39" y="333" on="0"/>
        <pt x="96" y="372" on="0"/>
        <pt x="134" y="365" on="1"/>
        <pt x="172" y="359" on="0"/>
        <pt x="210" y="302" on="0"/>
        <pt x="203" y="264" on="1"/>
        <pt x="196" y="226" on="0"/>
        <pt x="141" y="188" on="0"/>
      </contour>
    </TTGlyph>
    <TTGlyph name="plus" xMin="25" yMin="180" xMax="444" yMax="445">
      <contour>
        <pt x="25" y="180" on="1"/>
        <pt x="25" y="326" on="1"/>
        <pt x="155" y="326" on="1"/>
        <pt x="155" y="445" on="1"/>
        <pt x="314" y="445" on="1"/>
        <pt x="314" y="326" on="1"/>
        <pt x="444" y="326" on="1"/>
        <pt x="444" y="180" on="1"/>
      </contour>
    </TTGlyph>
    <TTGlyph name="question" xMin="23" yMin="-9" xMax="442" yMax="630">
      <contour>
        <pt x="127" y="223" on="1"/>
        <pt x="127" y="231" on="1"/>
        <pt x="127" y="282" on="0"/>
        <pt x="158" y="344" on="0"/>
        <pt x="204" y="378" on="0"/>
        <pt x="249" y="398" on="0"/>
        <pt x="280" y="415" on="0"/>
        <pt x="280" y="430" on="1"/>
        <pt x="280" y="451" on="0"/>
        <pt x="229" y="480" on="0"/>
        <pt x="198" y="480" on="1"/>
        <pt x="156" y="480" on="0"/>
        <pt x="84" y="455" on="0"/>
        <pt x="40" y="429" on="1"/>
        <pt x="23" y="568" on="1"/>
        <pt x="60" y="599" on="0"/>
        <pt x="143" y="630" on="0"/>
        <pt x="211" y="630" on="1"/>
        <pt x="252" y="630" on="0"/>
        <pt x="334" y="604" on="0"/>
        <pt x="401" y="555" on="0"/>
        <pt x="442" y="485" on="0"/>
        <pt x="442" y="441" on="1"/>
        <pt x="442" y="399" on="0"/>
        <pt x="411" y="352" on="0"/>
        <pt x="365" y="325" on="0"/>
        <pt x="318" y="300" on="0"/>
        <pt x="287" y="264" on="0"/>
        <pt x="287" y="231" on="1"/>
        <pt x="287" y="223" on="1"/>
      </contour>
      <contour>
        <pt x="207" y="-9" on="1"/>
        <pt x="162" y="-9" on="0"/>
        <pt x="106" y="47" on="0"/>
        <pt x="106" y="92" on="1"/>
        <pt x="106" y="136" on="0"/>
        <pt x="163" y="193" on="0"/>
        <pt x="207" y="193" on="1"/>
        <pt x="252" y="193" on="0"/>
        <pt x="308" y="136" on="0"/>
        <pt x="308" y="92" on="1"/>
        <pt x="308" y="47" on="0"/>
        <pt x="252" y="-9" on="0"/>
      </contour>
    </TTGlyph>
    <TTGlyph name="quotedbl" xMin="20" yMin="319" xMax="467" yMax="622">
      <contour>
        <pt x="236" y="319" on="1"/>
        <pt x="289" y="622" on="1"/>
        <pt x="467" y="622" on="1"/>
        <pt x="382" y="319" on="1"/>
      </contour>
      <contour>
        <pt x="20" y="319" on="1"/>
        <pt x="73" y="622" on="1"/>
        <pt x="251" y="622" on="1"/>
        <pt x="166" y="319" on="1"/>
      </contour>
    </TTGlyph>
    <TTGlyph name="quotesingle" xMin="19" yMin="319" xMax="250" yMax="622">
      <contour>
        <pt x="19" y="319" on="1"/>
        <pt x="73" y="622" on="1"/>
        <pt x="250" y="622" on="1"/>
        <pt x="165" y="319" on="1"/>
      </contour>
    </TTGlyph>
    <TTGlyph name="registered" xMin="23" yMin="176" xMax="477" yMax="627">
      <contour>
        <pt x="251" y="176" on="1"/>
        <pt x="188" y="176" on="0"/>
        <pt x="85" y="237" on="0"/>
        <pt x="23" y="339" on="0"/>
        <pt x="23" y="402" on="1"/>
        <pt x="23" y="464" on="0"/>
        <pt x="85" y="566" on="0"/>
        <pt x="188" y="627" on="0"/>
        <pt x="251" y="627" on="1"/>
        <pt x="313" y="627" on="0"/>
        <pt x="416" y="566" on="0"/>
        <pt x="477" y="464" on="0"/>
        <pt x="477" y="402" on="1"/>
        <pt x="477" y="339" on="0"/>
        <pt x="416" y="237" on="0"/>
        <pt x="313" y="176" on="0"/>
      </contour>
      <contour>
        <pt x="251" y="233" on="1"/>
        <pt x="296" y="233" on="0"/>
        <pt x="371" y="279" on="0"/>
        <pt x="416" y="356" on="0"/>
        <pt x="416" y="402" on="1"/>
        <pt x="416" y="448" on="0"/>
        <pt x="371" y="524" on="0"/>
        <pt x="296" y="569" on="0"/>
        <pt x="251" y="569" on="1"/>
        <pt x="205" y="569" on="0"/>
        <pt x="129" y="524" on="0"/>
        <pt x="85" y="448" on="0"/>
        <pt x="85" y="402" on="1"/>
        <pt x="85" y="356" on="0"/>
        <pt x="129" y="279" on="0"/>
        <pt x="205" y="233" on="0"/>
      </contour>
      <contour>
        <pt x="162" y="290" on="1"/>
        <pt x="162" y="519" on="1"/>
        <pt x="249" y="519" on="1"/>
        <pt x="295" y="519" on="0"/>
        <pt x="353" y="470" on="0"/>
        <pt x="353" y="429" on="1"/>
        <pt x="353" y="381" on="0"/>
        <pt x="313" y="359" on="1"/>
        <pt x="349" y="289" on="1"/>
        <pt x="270" y="289" on="1"/>
        <pt x="244" y="344" on="1"/>
        <pt x="229" y="344" on="1"/>
        <pt x="229" y="290" on="1"/>
      </contour>
      <contour>
        <pt x="229" y="405" on="1"/>
        <pt x="247" y="405" on="1"/>
        <pt x="286" y="405" on="0"/>
        <pt x="286" y="429" on="1"/>
        <pt x="286" y="457" on="0"/>
        <pt x="247" y="457" on="1"/>
        <pt x="229" y="457" on="1"/>
      </contour>
    </TTGlyph>
    <TTGlyph name="semicolon" xMin="5" yMin="-115" xMax="228" yMax="489">
      <contour>
        <pt x="118" y="287" on="1"/>
        <pt x="73" y="287" on="0"/>
        <pt x="17" y="343" on="0"/>
        <pt x="17" y="388" on="1"/>
        <pt x="17" y="432" on="0"/>
        <pt x="74" y="489" on="0"/>
        <pt x="118" y="489" on="1"/>
        <pt x="163" y="489" on="0"/>
        <pt x="219" y="432" on="0"/>
        <pt x="219" y="388" on="1"/>
        <pt x="219" y="343" on="0"/>
        <pt x="163" y="287" on="0"/>
      </contour>
      <contour>
        <pt x="5" y="-115" on="1"/>
        <pt x="50" y="181" on="1"/>
        <pt x="228" y="181" on="1"/>
        <pt x="149" y="-115" on="1"/>
      </contour>
    </TTGlyph>
    <TTGlyph name="seven" xMin="23" yMin="0" xMax="543" yMax="601">
      <contour>
        <pt x="332" y="0" on="1"/>
        <pt x="154" y="0" on="1"/>
        <pt x="306" y="425" on="1"/>
        <pt x="23" y="425" on="1"/>
        <pt x="23" y="601" on="1"/>
        <pt x="543" y="601" on="1"/>
      </contour>
    </TTGlyph>
    <TTGlyph name="six" xMin="16" yMin="-22" xMax="532" yMax="663">
      <contour>
        <pt x="16" y="225" on="1"/>
        <pt x="16" y="318" on="0"/>
        <pt x="75" y="465" on="0"/>
        <pt x="197" y="596" on="0"/>
        <pt x="290" y="663" on="1"/>
        <pt x="380" y="519" on="1"/>
        <pt x="356" y="504" on="0"/>
        <pt x="296" y="465" on="0"/>
        <pt x="266" y="437" on="1"/>
        <pt x="283" y="438" on="0"/>
        <pt x="299" y="438" on="1"/>
        <pt x="369" y="438" on="0"/>
        <pt x="474" y="379" on="0"/>
        <pt x="532" y="280" on="0"/>
        <pt x="532" y="222" on="1"/>
        <pt x="532" y="141" on="0"/>
        <pt x="465" y="33" on="0"/>
        <pt x="349" y="-22" on="0"/>
        <pt x="275" y="-22" on="1"/>
        <pt x="204" y="-22" on="0"/>
        <pt x="86" y="37" on="0"/>
        <pt x="16" y="148" on="0"/>
      </contour>
      <contour>
        <pt x="279" y="154" on="1"/>
        <pt x="321" y="154" on="0"/>
        <pt x="371" y="184" on="0"/>
        <pt x="371" y="209" on="1"/>
        <pt x="371" y="234" on="0"/>
        <pt x="320" y="262" on="0"/>
        <pt x="276" y="262" on="1"/>
        <pt x="234" y="262" on="0"/>
        <pt x="179" y="237" on="0"/>
        <pt x="179" y="212" on="1"/>
        <pt x="179" y="184" on="0"/>
        <pt x="237" y="154" on="0"/>
      </contour>
    </TTGlyph>
    <TTGlyph name="slash" xMin="5" yMin="-185" xMax="448" yMax="730">
      <contour>
        <pt x="5" y="-185" on="1"/>
        <pt x="278" y="730" on="1"/>
        <pt x="448" y="730" on="1"/>
        <pt x="175" y="-185" on="1"/>
      </contour>
    </TTGlyph>
    <TTGlyph name="three" xMin="10" yMin="-25" xMax="520" yMax="600">
      <contour>
        <pt x="254" y="-25" on="1"/>
        <pt x="191" y="-25" on="0"/>
        <pt x="69" y="-3" on="0"/>
        <pt x="10" y="17" on="1"/>
        <pt x="70" y="183" on="1"/>
        <pt x="112" y="169" on="0"/>
        <pt x="197" y="151" on="0"/>
        <pt x="254" y="151" on="1"/>
        <pt x="294" y="151" on="0"/>
        <pt x="360" y="180" on="0"/>
        <pt x="360" y="205" on="1"/>
        <pt x="360" y="226" on="0"/>
        <pt x="297" y="250" on="0"/>
        <pt x="185" y="262" on="0"/>
        <pt x="111" y="264" on="1"/>
        <pt x="245" y="424" on="1"/>
        <pt x="38" y="424" on="1"/>
        <pt x="38" y="600" on="1"/>
        <pt x="505" y="600" on="1"/>
        <pt x="505" y="463" on="1"/>
        <pt x="378" y="358" on="1"/>
        <pt x="453" y="331" on="0"/>
        <pt x="520" y="247" on="0"/>
        <pt x="520" y="182" on="1"/>
        <pt x="520" y="125" on="0"/>
        <pt x="457" y="32" on="0"/>
        <pt x="338" y="-25" on="0"/>
      </contour>
    </TTGlyph>
    <TTGlyph name="trademark" xMin="28" yMin="271" xMax="656" yMax="585">
      <contour>
        <pt x="287" y="271" on="1"/>
        <pt x="287" y="585" on="1"/>
        <pt x="373" y="585" on="1"/>
        <pt x="471" y="456" on="1"/>
        <pt x="570" y="585" on="1"/>
        <pt x="656" y="585" on="1"/>
        <pt x="656" y="271" on="1"/>
        <pt x="559" y="271" on="1"/>
        <pt x="559" y="408" on="1"/>
        <pt x="471" y="309" on="1"/>
        <pt x="383" y="409" on="1"/>
        <pt x="383" y="271" on="1"/>
      </contour>
      <contour>
        <pt x="98" y="271" on="1"/>
        <pt x="98" y="483" on="1"/>
        <pt x="28" y="483" on="1"/>
        <pt x="28" y="585" on="1"/>
        <pt x="265" y="585" on="1"/>
        <pt x="265" y="483" on="1"/>
        <pt x="194" y="483" on="1"/>
        <pt x="194" y="271" on="1"/>
      </contour>
    </TTGlyph>
    <TTGlyph name="two" xMin="-1" yMin="0" xMax="512" yMax="627">
      <contour>
        <pt x="45" y="0" on="1"/>
        <pt x="46" y="177" on="1"/>
        <pt x="155" y="216" on="0"/>
        <pt x="281" y="283" on="0"/>
        <pt x="336" y="345" on="0"/>
        <pt x="336" y="376" on="1"/>
        <pt x="336" y="407" on="0"/>
        <pt x="291" y="449" on="0"/>
        <pt x="253" y="449" on="1"/>
        <pt x="213" y="449" on="0"/>
        <pt x="129" y="415" on="0"/>
        <pt x="69" y="375" on="1"/>
        <pt x="-1" y="526" on="1"/>
        <pt x="47" y="556" on="0"/>
        <pt x="135" y="601" on="0"/>
        <pt x="232" y="627" on="0"/>
        <pt x="292" y="627" on="1"/>
        <pt x="366" y="627" on="0"/>
        <pt x="463" y="571" on="0"/>
        <pt x="512" y="479" on="0"/>
        <pt x="512" y="426" on="1"/>
        <pt x="512" y="358" on="0"/>
        <pt x="459" y="265" on="0"/>
        <pt x="378" y="201" on="0"/>
        <pt x="338" y="176" on="1"/>
        <pt x="512" y="176" on="1"/>
        <pt x="512" y="0" on="1"/>
      </contour>
    </TTGlyph>
    <TTGlyph name="underscore" xMin="29" yMin="-32" xMax="424" yMax="113">
      <contour>
        <pt x="29" y="113" on="1"/>
        <pt x="424" y="113" on="1"/>
        <pt x="424" y="-32" on="1"/>
        <pt x="29" y="-32" on="1"/>
      </contour>
    </TTGlyph>
    <TTGlyph name="uni05B0" xMin="-55" yMin="-319" xMax="54" yMax="-79">
      <contour>
        <pt x="0" y="-189" on="1"/>
        <pt x="-23" y="-189" on="0"/>
        <pt x="-55" y="-156" on="0"/>
        <pt x="-55" y="-134" on="1"/>
        <pt x="-55" y="-112" on="0"/>
        <pt x="-23" y="-79" on="0"/>
        <pt x="0" y="-79" on="1"/>
        <pt x="22" y="-79" on="0"/>
        <pt x="54" y="-112" on="0"/>
        <pt x="54" y="-134" on="1"/>
        <pt x="54" y="-156" on="0"/>
        <pt x="22" y="-189" on="0"/>
      </contour>
      <contour>
        <pt x="0" y="-319" on="1"/>
        <pt x="-23" y="-319" on="0"/>
        <pt x="-55" y="-286" on="0"/>
        <pt x="-55" y="-264" on="1"/>
        <pt x="-55" y="-242" on="0"/>
        <pt x="-23" y="-209" on="0"/>
        <pt x="0" y="-209" on="1"/>
        <pt x="22" y="-209" on="0"/>
        <pt x="54" y="-242" on="0"/>
        <pt x="54" y="-264" on="1"/>
        <pt x="54" y="-286" on="0"/>
        <pt x="22" y="-319" on="0"/>
      </contour>
    </TTGlyph>
    <TTGlyph name="uni05B1" xMin="-197" yMin="-319" xMax="194" yMax="-79">
      <contour>
        <pt x="141" y="-189" on="1"/>
        <pt x="118" y="-189" on="0"/>
        <pt x="86" y="-156" on="0"/>
        <pt x="86" y="-134" on="1"/>
        <pt x="86" y="-112" on="0"/>
        <pt x="118" y="-79" on="0"/>
        <pt x="141" y="-79" on="1"/>
        <pt x="163" y="-79" on="0"/>
        <pt x="194" y="-112" on="0"/>
        <pt x="194" y="-134" on="1"/>
        <pt x="194" y="-156" on="0"/>
        <pt x="163" y="-189" on="0"/>
      </contour>
      <contour>
        <pt x="-142" y="-189" on="1"/>
        <pt x="-165" y="-189" on="0"/>
        <pt x="-197" y="-156" on="0"/>
        <pt x="-197" y="-134" on="1"/>
        <pt x="-197" y="-112" on="0"/>
        <pt x="-165" y="-79" on="0"/>
        <pt x="-142" y="-79" on="1"/>
        <pt x="-120" y="-79" on="0"/>
        <pt x="-88" y="-112" on="0"/>
        <pt x="-88" y="-134" on="1"/>
        <pt x="-88" y="-156" on="0"/>
        <pt x="-120" y="-189" on="0"/>
      </contour>
      <contour>
        <pt x="2" y="-189" on="1"/>
        <pt x="-21" y="-189" on="0"/>
        <pt x="-53" y="-156" on="0"/>
        <pt x="-53" y="-134" on="1"/>
        <pt x="-53" y="-112" on="0"/>
        <pt x="-21" y="-79" on="0"/>
        <pt x="2" y="-79" on="1"/>
        <pt x="24" y="-79" on="0"/>
        <pt x="56" y="-112" on="0"/>
        <pt x="56" y="-134" on="1"/>
        <pt x="56" y="-156" on="0"/>
        <pt x="24" y="-189" on="0"/>
      </contour>
      <contour>
        <pt x="141" y="-319" on="1"/>
        <pt x="118" y="-319" on="0"/>
        <pt x="86" y="-286" on="0"/>
        <pt x="86" y="-264" on="1"/>
        <pt x="86" y="-242" on="0"/>
        <pt x="118" y="-209" on="0"/>
        <pt x="141" y="-209" on="1"/>
        <pt x="163" y="-209" on="0"/>
        <pt x="194" y="-242" on="0"/>
        <pt x="194" y="-264" on="1"/>
        <pt x="194" y="-286" on="0"/>
        <pt x="163" y="-319" on="0"/>
      </contour>
      <contour>
        <pt x="-70" y="-319" on="1"/>
        <pt x="-93" y="-319" on="0"/>
        <pt x="-125" y="-286" on="0"/>
        <pt x="-125" y="-264" on="1"/>
        <pt x="-125" y="-242" on="0"/>
        <pt x="-93" y="-209" on="0"/>
        <pt x="-70" y="-209" on="1"/>
        <pt x="-48" y="-209" on="0"/>
        <pt x="-16" y="-242" on="0"/>
        <pt x="-16" y="-264" on="1"/>
        <pt x="-16" y="-286" on="0"/>
        <pt x="-48" y="-319" on="0"/>
      </contour>
    </TTGlyph>
    <TTGlyph name="uni05B2" xMin="-193" yMin="-319" xMax="179" yMax="-79">
      <contour>
        <pt x="125" y="-189" on="1"/>
        <pt x="102" y="-189" on="0"/>
        <pt x="71" y="-156" on="0"/>
        <pt x="71" y="-134" on="1"/>
        <pt x="71" y="-112" on="0"/>
        <pt x="102" y="-79" on="0"/>
        <pt x="125" y="-79" on="1"/>
        <pt x="148" y="-79" on="0"/>
        <pt x="179" y="-112" on="0"/>
        <pt x="179" y="-134" on="1"/>
        <pt x="179" y="-156" on="0"/>
        <pt x="148" y="-189" on="0"/>
      </contour>
      <contour>
        <pt x="-193" y="-168" on="1"/>
        <pt x="-193" y="-90" on="1"/>
        <pt x="36" y="-90" on="1"/>
        <pt x="36" y="-168" on="1"/>
      </contour>
      <contour>
        <pt x="125" y="-319" on="1"/>
        <pt x="102" y="-319" on="0"/>
        <pt x="71" y="-286" on="0"/>
        <pt x="71" y="-264" on="1"/>
        <pt x="71" y="-242" on="0"/>
        <pt x="102" y="-209" on="0"/>
        <pt x="125" y="-209" on="1"/>
        <pt x="148" y="-209" on="0"/>
        <pt x="179" y="-242" on="0"/>
        <pt x="179" y="-264" on="1"/>
        <pt x="179" y="-286" on="0"/>
        <pt x="148" y="-319" on="0"/>
      </contour>
    </TTGlyph>
    <TTGlyph name="uni05B3" xMin="-193" yMin="-319" xMax="179" yMax="-79">
      <contour>
        <pt x="125" y="-189" on="1"/>
        <pt x="102" y="-189" on="0"/>
        <pt x="71" y="-156" on="0"/>
        <pt x="71" y="-134" on="1"/>
        <pt x="71" y="-112" on="0"/>
        <pt x="102" y="-79" on="0"/>
        <pt x="125" y="-79" on="1"/>
        <pt x="148" y="-79" on="0"/>
        <pt x="179" y="-112" on="0"/>
        <pt x="179" y="-134" on="1"/>
        <pt x="179" y="-156" on="0"/>
        <pt x="148" y="-189" on="0"/>
      </contour>
      <contour>
        <pt x="-118" y="-317" on="1"/>
        <pt x="-114" y="-168" on="1"/>
        <pt x="-193" y="-168" on="1"/>
        <pt x="-193" y="-90" on="1"/>
        <pt x="36" y="-90" on="1"/>
        <pt x="36" y="-168" on="1"/>
        <pt x="-43" y="-168" on="1"/>
        <pt x="-39" y="-317" on="1"/>
      </contour>
      <contour>
        <pt x="125" y="-319" on="1"/>
        <pt x="102" y="-319" on="0"/>
        <pt x="71" y="-286" on="0"/>
        <pt x="71" y="-264" on="1"/>
        <pt x="71" y="-242" on="0"/>
        <pt x="102" y="-209" on="0"/>
        <pt x="125" y="-209" on="1"/>
        <pt x="148" y="-209" on="0"/>
        <pt x="179" y="-242" on="0"/>
        <pt x="179" y="-264" on="1"/>
        <pt x="179" y="-286" on="0"/>
        <pt x="148" y="-319" on="0"/>
      </contour>
    </TTGlyph>
    <TTGlyph name="uni05B4" xMin="-55" yMin="-189" xMax="54" yMax="-79">
      <contour>
        <pt x="0" y="-189" on="1"/>
        <pt x="-23" y="-189" on="0"/>
        <pt x="-55" y="-156" on="0"/>
        <pt x="-55" y="-134" on="1"/>
        <pt x="-55" y="-112" on="0"/>
        <pt x="-23" y="-79" on="0"/>
        <pt x="0" y="-79" on="1"/>
        <pt x="22" y="-79" on="0"/>
        <pt x="54" y="-112" on="0"/>
        <pt x="54" y="-134" on="1"/>
        <pt x="54" y="-156" on="0"/>
        <pt x="22" y="-189" on="0"/>
      </contour>
    </TTGlyph>
    <TTGlyph name="uni05B5" xMin="-132" yMin="-189" xMax="131" yMax="-79">
      <contour>
        <pt x="-77" y="-189" on="1"/>
        <pt x="-100" y="-189" on="0"/>
        <pt x="-132" y="-156" on="0"/>
        <pt x="-132" y="-134" on="1"/>
        <pt x="-132" y="-112" on="0"/>
        <pt x="-100" y="-79" on="0"/>
        <pt x="-77" y="-79" on="1"/>
        <pt x="-55" y="-79" on="0"/>
        <pt x="-23" y="-112" on="0"/>
        <pt x="-23" y="-134" on="1"/>
        <pt x="-23" y="-156" on="0"/>
        <pt x="-55" y="-189" on="0"/>
      </contour>
      <contour>
        <pt x="77" y="-189" on="1"/>
        <pt x="54" y="-189" on="0"/>
        <pt x="22" y="-156" on="0"/>
        <pt x="22" y="-134" on="1"/>
        <pt x="22" y="-112" on="0"/>
        <pt x="54" y="-79" on="0"/>
        <pt x="77" y="-79" on="1"/>
        <pt x="99" y="-79" on="0"/>
        <pt x="131" y="-112" on="0"/>
        <pt x="131" y="-134" on="1"/>
        <pt x="131" y="-156" on="0"/>
        <pt x="99" y="-189" on="0"/>
      </contour>
    </TTGlyph>
    <TTGlyph name="uni05B6" xMin="-132" yMin="-319" xMax="131" yMax="-79">
      <contour>
        <pt x="-77" y="-189" on="1"/>
        <pt x="-100" y="-189" on="0"/>
        <pt x="-132" y="-156" on="0"/>
        <pt x="-132" y="-134" on="1"/>
        <pt x="-132" y="-112" on="0"/>
        <pt x="-100" y="-79" on="0"/>
        <pt x="-77" y="-79" on="1"/>
        <pt x="-55" y="-79" on="0"/>
        <pt x="-23" y="-112" on="0"/>
        <pt x="-23" y="-134" on="1"/>
        <pt x="-23" y="-156" on="0"/>
        <pt x="-55" y="-189" on="0"/>
      </contour>
      <contour>
        <pt x="77" y="-189" on="1"/>
        <pt x="54" y="-189" on="0"/>
        <pt x="22" y="-156" on="0"/>
        <pt x="22" y="-134" on="1"/>
        <pt x="22" y="-112" on="0"/>
        <pt x="54" y="-79" on="0"/>
        <pt x="77" y="-79" on="1"/>
        <pt x="99" y="-79" on="0"/>
        <pt x="131" y="-112" on="0"/>
        <pt x="131" y="-134" on="1"/>
        <pt x="131" y="-156" on="0"/>
        <pt x="99" y="-189" on="0"/>
      </contour>
      <contour>
        <pt x="0" y="-319" on="1"/>
        <pt x="-23" y="-319" on="0"/>
        <pt x="-55" y="-286" on="0"/>
        <pt x="-55" y="-264" on="1"/>
        <pt x="-55" y="-242" on="0"/>
        <pt x="-23" y="-209" on="0"/>
        <pt x="0" y="-209" on="1"/>
        <pt x="22" y="-209" on="0"/>
        <pt x="54" y="-242" on="0"/>
        <pt x="54" y="-264" on="1"/>
        <pt x="54" y="-286" on="0"/>
        <pt x="22" y="-319" on="0"/>
      </contour>
    </TTGlyph>
    <TTGlyph name="uni05B7" xMin="-152" yMin="-168" xMax="154" yMax="-90">
      <contour>
        <pt x="-152" y="-168" on="1"/>
        <pt x="-152" y="-90" on="1"/>
        <pt x="154" y="-90" on="1"/>
        <pt x="154" y="-168" on="1"/>
      </contour>
    </TTGlyph>
    <TTGlyph name="uni05B8" xMin="-152" yMin="-276" xMax="154" yMax="-90">
      <contour>
        <pt x="-152" y="-168" on="1"/>
        <pt x="-152" y="-90" on="1"/>
        <pt x="154" y="-90" on="1"/>
        <pt x="154" y="-168" on="1"/>
        <pt x="37" y="-168" on="1"/>
        <pt x="41" y="-276" on="1"/>
        <pt x="-39" y="-276" on="1"/>
        <pt x="-35" y="-168" on="1"/>
      </contour>
    </TTGlyph>
    <TTGlyph name="uni05B8.narrow" xMin="-92" yMin="-276" xMax="94" yMax="-90">
      <contour>
        <pt x="-92" y="-168" on="1"/>
        <pt x="-92" y="-90" on="1"/>
        <pt x="94" y="-90" on="1"/>
        <pt x="94" y="-168" on="1"/>
        <pt x="37" y="-168" on="1"/>
        <pt x="41" y="-276" on="1"/>
        <pt x="-39" y="-276" on="1"/>
        <pt x="-35" y="-168" on="1"/>
      </contour>
    </TTGlyph>
    <TTGlyph name="uni05B9" xMin="-92" yMin="615" xMax="17" yMax="725">
      <contour>
        <pt x="-37" y="615" on="1"/>
        <pt x="-60" y="615" on="0"/>
        <pt x="-92" y="648" on="0"/>
        <pt x="-92" y="670" on="1"/>
        <pt x="-92" y="692" on="0"/>
        <pt x="-60" y="725" on="0"/>
        <pt x="-37" y="725" on="1"/>
        <pt x="-15" y="725" on="0"/>
        <pt x="17" y="692" on="0"/>
        <pt x="17" y="670" on="1"/>
        <pt x="17" y="648" on="0"/>
        <pt x="-15" y="615" on="0"/>
      </contour>
    </TTGlyph>
    <TTGlyph name="uni05BA" xMin="-92" yMin="615" xMax="17" yMax="725">
      <contour>
        <pt x="-37" y="615" on="1"/>
        <pt x="-60" y="615" on="0"/>
        <pt x="-92" y="648" on="0"/>
        <pt x="-92" y="670" on="1"/>
        <pt x="-92" y="692" on="0"/>
        <pt x="-60" y="725" on="0"/>
        <pt x="-37" y="725" on="1"/>
        <pt x="-15" y="725" on="0"/>
        <pt x="17" y="692" on="0"/>
        <pt x="17" y="670" on="1"/>
        <pt x="17" y="648" on="0"/>
        <pt x="-15" y="615" on="0"/>
      </contour>
    </TTGlyph>
    <TTGlyph name="uni05BB" xMin="-55" yMin="-385" xMax="203" yMax="-79">
      <contour>
        <pt x="0" y="-189" on="1"/>
        <pt x="-23" y="-189" on="0"/>
        <pt x="-55" y="-156" on="0"/>
        <pt x="-55" y="-134" on="1"/>
        <pt x="-55" y="-112" on="0"/>
        <pt x="-23" y="-79" on="0"/>
        <pt x="0" y="-79" on="1"/>
        <pt x="22" y="-79" on="0"/>
        <pt x="54" y="-112" on="0"/>
        <pt x="54" y="-134" on="1"/>
        <pt x="54" y="-156" on="0"/>
        <pt x="22" y="-189" on="0"/>
      </contour>
      <contour>
        <pt x="74" y="-287" on="1"/>
        <pt x="51" y="-287" on="0"/>
        <pt x="20" y="-254" on="0"/>
        <pt x="20" y="-232" on="1"/>
        <pt x="20" y="-210" on="0"/>
        <pt x="51" y="-177" on="0"/>
        <pt x="74" y="-177" on="1"/>
        <pt x="97" y="-177" on="0"/>
        <pt x="128" y="-210" on="0"/>
        <pt x="128" y="-232" on="1"/>
        <pt x="128" y="-254" on="0"/>
        <pt x="97" y="-287" on="0"/>
      </contour>
      <contour>
        <pt x="149" y="-385" on="1"/>
        <pt x="126" y="-385" on="0"/>
        <pt x="94" y="-352" on="0"/>
        <pt x="94" y="-330" on="1"/>
        <pt x="94" y="-308" on="0"/>
        <pt x="126" y="-275" on="0"/>
        <pt x="149" y="-275" on="1"/>
        <pt x="171" y="-275" on="0"/>
        <pt x="203" y="-308" on="0"/>
        <pt x="203" y="-330" on="1"/>
        <pt x="203" y="-352" on="0"/>
        <pt x="171" y="-385" on="0"/>
      </contour>
    </TTGlyph>
    <TTGlyph name="uni05BC" xMin="-14" yMin="152" xMax="109" yMax="276">
      <contour>
        <pt x="48" y="152" on="1"/>
        <pt x="22" y="152" on="0"/>
        <pt x="-14" y="188" on="0"/>
        <pt x="-14" y="214" on="1"/>
        <pt x="-14" y="240" on="0"/>
        <pt x="22" y="276" on="0"/>
        <pt x="48" y="276" on="1"/>
        <pt x="74" y="276" on="0"/>
        <pt x="109" y="240" on="0"/>
        <pt x="109" y="214" on="1"/>
        <pt x="109" y="188" on="0"/>
        <pt x="74" y="152" on="0"/>
      </contour>
    </TTGlyph>
    <TTGlyph name="uni05BE" xMin="29" yMin="408" xMax="324" yMax="556">
      <contour>
        <pt x="29" y="556" on="1"/>
        <pt x="324" y="556" on="1"/>
        <pt x="324" y="408" on="1"/>
        <pt x="29" y="408" on="1"/>
      </contour>
    </TTGlyph>
    <TTGlyph name="uni05BF" xMin="-152" yMin="632" xMax="154" yMax="710">
      <contour>
        <pt x="-152" y="632" on="1"/>
        <pt x="-152" y="710" on="1"/>
        <pt x="154" y="710" on="1"/>
        <pt x="154" y="632" on="1"/>
      </contour>
    </TTGlyph>
    <TTGlyph name="uni05C1" xMin="-127" yMin="615" xMax="-18" yMax="725">
      <contour>
        <pt x="-72" y="615" on="1"/>
        <pt x="-95" y="615" on="0"/>
        <pt x="-127" y="648" on="0"/>
        <pt x="-127" y="670" on="1"/>
        <pt x="-127" y="692" on="0"/>
        <pt x="-95" y="725" on="0"/>
        <pt x="-72" y="725" on="1"/>
        <pt x="-50" y="725" on="0"/>
        <pt x="-18" y="692" on="0"/>
        <pt x="-18" y="670" on="1"/>
        <pt x="-18" y="648" on="0"/>
        <pt x="-50" y="615" on="0"/>
      </contour>
    </TTGlyph>
    <TTGlyph name="uni05C2" xMin="34" yMin="615" xMax="143" yMax="725">
      <contour>
        <pt x="89" y="615" on="1"/>
        <pt x="66" y="615" on="0"/>
        <pt x="34" y="648" on="0"/>
        <pt x="34" y="670" on="1"/>
        <pt x="34" y="692" on="0"/>
        <pt x="66" y="725" on="0"/>
        <pt x="89" y="725" on="1"/>
        <pt x="111" y="725" on="0"/>
        <pt x="143" y="692" on="0"/>
        <pt x="143" y="670" on="1"/>
        <pt x="143" y="648" on="0"/>
        <pt x="111" y="615" on="0"/>
      </contour>
    </TTGlyph>
    <TTGlyph name="uni05D0" xMin="34" yMin="-15" xMax="589" yMax="586">
      <contour>
        <pt x="34" y="0" on="1"/>
        <pt x="34" y="79" on="0"/>
        <pt x="37" y="190" on="0"/>
        <pt x="56" y="271" on="0"/>
        <pt x="102" y="339" on="0"/>
        <pt x="144" y="375" on="1"/>
        <pt x="118" y="400" on="0"/>
        <pt x="64" y="449" on="0"/>
        <pt x="34" y="473" on="1"/>
        <pt x="148" y="586" on="1"/>
        <pt x="216" y="517" on="0"/>
        <pt x="332" y="397" on="0"/>
        <pt x="381" y="342" on="1"/>
        <pt x="402" y="387" on="0"/>
        <pt x="409" y="485" on="0"/>
        <pt x="409" y="556" on="1"/>
        <pt x="585" y="556" on="1"/>
        <pt x="585" y="469" on="0"/>
        <pt x="570" y="348" on="0"/>
        <pt x="531" y="255" on="0"/>
        <pt x="494" y="209" on="1"/>
        <pt x="546" y="144" on="0"/>
        <pt x="589" y="79" on="1"/>
        <pt x="462" y="-15" on="1"/>
        <pt x="401" y="74" on="0"/>
        <pt x="295" y="213" on="0"/>
        <pt x="244" y="271" on="1"/>
        <pt x="227" y="245" on="0"/>
        <pt x="213" y="174" on="0"/>
        <pt x="210" y="73" on="0"/>
        <pt x="210" y="0" on="1"/>
      </contour>
    </TTGlyph>
    <TTGlyph name="uni05D0.forDagesh" xMin="34" yMin="-15" xMax="589" yMax="586">
      <contour>
        <pt x="34" y="0" on="1"/>
        <pt x="34" y="79" on="0"/>
        <pt x="37" y="190" on="0"/>
        <pt x="56" y="271" on="0"/>
        <pt x="102" y="339" on="0"/>
        <pt x="144" y="375" on="1"/>
        <pt x="118" y="400" on="0"/>
        <pt x="64" y="449" on="0"/>
        <pt x="34" y="473" on="1"/>
        <pt x="148" y="586" on="1"/>
        <pt x="216" y="517" on="0"/>
        <pt x="332" y="397" on="0"/>
        <pt x="381" y="342" on="1"/>
        <pt x="402" y="387" on="0"/>
        <pt x="409" y="485" on="0"/>
        <pt x="409" y="556" on="1"/>
        <pt x="585" y="556" on="1"/>
        <pt x="585" y="469" on="0"/>
        <pt x="570" y="348" on="0"/>
        <pt x="531" y="255" on="0"/>
        <pt x="494" y="209" on="1"/>
        <pt x="546" y="144" on="0"/>
        <pt x="589" y="79" on="1"/>
        <pt x="462" y="-15" on="1"/>
        <pt x="401" y="74" on="0"/>
        <pt x="295" y="213" on="0"/>
        <pt x="244" y="271" on="1"/>
        <pt x="227" y="245" on="0"/>
        <pt x="213" y="174" on="0"/>
        <pt x="210" y="73" on="0"/>
        <pt x="210" y="0" on="1"/>
      </contour>
    </TTGlyph>
    <TTGlyph name="uni05D1" xMin="26" yMin="0" xMax="519" yMax="556">
      <contour>
        <pt x="26" y="0" on="1"/>
        <pt x="26" y="169" on="1"/>
        <pt x="290" y="169" on="1"/>
        <pt x="290" y="296" on="1"/>
        <pt x="290" y="347" on="0"/>
        <pt x="231" y="387" on="0"/>
        <pt x="177" y="387" on="1"/>
        <pt x="26" y="387" on="1"/>
        <pt x="26" y="556" on="1"/>
        <pt x="177" y="556" on="1"/>
        <pt x="267" y="556" on="0"/>
        <pt x="397" y="492" on="0"/>
        <pt x="466" y="375" on="0"/>
        <pt x="466" y="296" on="1"/>
        <pt x="466" y="169" on="1"/>
        <pt x="519" y="169" on="1"/>
        <pt x="519" y="0" on="1"/>
      </contour>
    </TTGlyph>
    <TTGlyph name="uni05D2" xMin="22" yMin="-13" xMax="370" yMax="569">
      <contour>
        <pt x="22" y="-13" on="1"/>
        <pt x="32" y="150" on="1"/>
        <pt x="78" y="161" on="0"/>
        <pt x="152" y="206" on="0"/>
        <pt x="178" y="242" on="1"/>
        <pt x="175" y="273" on="1"/>
        <pt x="171" y="342" on="0"/>
        <pt x="103" y="399" on="0"/>
        <pt x="39" y="408" on="1"/>
        <pt x="54" y="569" on="1"/>
        <pt x="164" y="562" on="0"/>
        <pt x="291" y="493" on="0"/>
        <pt x="348" y="371" on="0"/>
        <pt x="353" y="286" on="1"/>
        <pt x="370" y="1" on="1"/>
        <pt x="195" y="0" on="1"/>
        <pt x="188" y="89" on="1"/>
        <pt x="157" y="52" on="0"/>
        <pt x="73" y="-3" on="0"/>
      </contour>
    </TTGlyph>
    <TTGlyph name="uni05D3" xMin="19" yMin="3" xMax="517" yMax="556">
      <contour>
        <pt x="276" y="3" on="1"/>
        <pt x="276" y="394" on="1"/>
        <pt x="19" y="394" on="1"/>
        <pt x="19" y="556" on="1"/>
        <pt x="517" y="556" on="1"/>
        <pt x="517" y="394" on="1"/>
        <pt x="452" y="394" on="1"/>
        <pt x="452" y="3" on="1"/>
      </contour>
    </TTGlyph>
    <TTGlyph name="uni05D4" xMin="31" yMin="0" xMax="586" yMax="556">
      <contour>
        <pt x="410" y="0" on="1"/>
        <pt x="410" y="294" on="1"/>
        <pt x="410" y="341" on="0"/>
        <pt x="351" y="395" on="0"/>
        <pt x="296" y="395" on="1"/>
        <pt x="31" y="395" on="1"/>
        <pt x="31" y="556" on="1"/>
        <pt x="296" y="556" on="1"/>
        <pt x="387" y="556" on="0"/>
        <pt x="516" y="491" on="0"/>
        <pt x="586" y="373" on="0"/>
        <pt x="586" y="294" on="1"/>
        <pt x="586" y="0" on="1"/>
      </contour>
      <contour>
        <pt x="35" y="0" on="1"/>
        <pt x="35" y="299" on="1"/>
        <pt x="211" y="299" on="1"/>
        <pt x="211" y="0" on="1"/>
      </contour>
    </TTGlyph>
    <TTGlyph name="uni05D5" xMin="24" yMin="0" xMax="292" yMax="564">
      <contour>
        <pt x="116" y="0" on="1"/>
        <pt x="116" y="299" on="1"/>
        <pt x="116" y="349" on="0"/>
        <pt x="72" y="393" on="0"/>
        <pt x="24" y="404" on="1"/>
        <pt x="34" y="564" on="1"/>
        <pt x="173" y="553" on="0"/>
        <pt x="292" y="430" on="0"/>
        <pt x="292" y="299" on="1"/>
        <pt x="292" y="0" on="1"/>
      </contour>
    </TTGlyph>
    <TTGlyph name="uni05D6" xMin="19" yMin="-22" xMax="340" yMax="556">
      <contour>
        <pt x="147" y="-22" on="1"/>
        <pt x="118" y="45" on="0"/>
        <pt x="80" y="174" on="0"/>
        <pt x="78" y="234" on="1"/>
        <pt x="77" y="280" on="0"/>
        <pt x="90" y="358" on="0"/>
        <pt x="104" y="395" on="1"/>
        <pt x="19" y="395" on="1"/>
        <pt x="19" y="556" on="1"/>
        <pt x="340" y="556" on="1"/>
        <pt x="340" y="395" on="1"/>
        <pt x="276" y="395" on="1"/>
        <pt x="262" y="353" on="0"/>
        <pt x="254" y="282" on="0"/>
        <pt x="255" y="243" on="1"/>
        <pt x="256" y="199" on="0"/>
        <pt x="285" y="84" on="0"/>
        <pt x="309" y="22" on="1"/>
      </contour>
    </TTGlyph>
    <TTGlyph name="uni05D7" xMin="31" yMin="0" xMax="582" yMax="556">
      <contour>
        <pt x="31" y="0" on="1"/>
        <pt x="31" y="556" on="1"/>
        <pt x="292" y="556" on="1"/>
        <pt x="435" y="556" on="0"/>
        <pt x="582" y="396" on="0"/>
        <pt x="582" y="251" on="1"/>
        <pt x="582" y="0" on="1"/>
        <pt x="406" y="0" on="1"/>
        <pt x="406" y="251" on="1"/>
        <pt x="406" y="326" on="0"/>
        <pt x="352" y="395" on="0"/>
        <pt x="292" y="395" on="1"/>
        <pt x="207" y="395" on="1"/>
        <pt x="207" y="0" on="1"/>
      </contour>
    </TTGlyph>
    <TTGlyph name="uni05D8" xMin="30" yMin="-17" xMax="646" yMax="573">
      <contour>
        <pt x="335" y="-17" on="1"/>
        <pt x="185" y="-17" on="0"/>
        <pt x="30" y="149" on="0"/>
        <pt x="31" y="303" on="1"/>
        <pt x="32" y="556" on="1"/>
        <pt x="208" y="556" on="1"/>
        <pt x="207" y="287" on="1"/>
        <pt x="207" y="224" on="0"/>
        <pt x="267" y="143" on="0"/>
        <pt x="335" y="143" on="1"/>
        <pt x="402" y="143" on="0"/>
        <pt x="470" y="223" on="0"/>
        <pt x="470" y="276" on="1"/>
        <pt x="470" y="335" on="0"/>
        <pt x="423" y="403" on="0"/>
        <pt x="384" y="403" on="1"/>
        <pt x="367" y="403" on="0"/>
        <pt x="328" y="393" on="0"/>
        <pt x="306" y="383" on="1"/>
        <pt x="272" y="539" on="1"/>
        <pt x="306" y="555" on="0"/>
        <pt x="374" y="573" on="0"/>
        <pt x="418" y="573" on="1"/>
        <pt x="497" y="573" on="0"/>
        <pt x="598" y="499" on="0"/>
        <pt x="646" y="372" on="0"/>
        <pt x="646" y="293" on="1"/>
        <pt x="646" y="193" on="0"/>
        <pt x="568" y="55" on="0"/>
        <pt x="428" y="-17" on="0"/>
      </contour>
    </TTGlyph>
    <TTGlyph name="uni05D9" xMin="23" yMin="135" xMax="318" yMax="570">
      <contour>
        <pt x="269" y="135" on="1"/>
        <pt x="117" y="190" on="1"/>
        <pt x="132" y="237" on="0"/>
        <pt x="141" y="294" on="0"/>
        <pt x="141" y="319" on="1"/>
        <pt x="141" y="338" on="0"/>
        <pt x="123" y="373" on="0"/>
        <pt x="72" y="401" on="0"/>
        <pt x="23" y="410" on="1"/>
        <pt x="41" y="570" on="1"/>
        <pt x="146" y="563" on="0"/>
        <pt x="267" y="497" on="0"/>
        <pt x="318" y="402" on="0"/>
        <pt x="317" y="352" on="1"/>
        <pt x="317" y="307" on="0"/>
        <pt x="292" y="199" on="0"/>
      </contour>
    </TTGlyph>
    <TTGlyph name="uni05DA" xMin="22" yMin="-155" xMax="528" yMax="556">
      <contour>
        <pt x="287" y="-155" on="1"/>
        <pt x="287" y="394" on="1"/>
        <pt x="22" y="394" on="1"/>
        <pt x="22" y="556" on="1"/>
        <pt x="528" y="556" on="1"/>
        <pt x="528" y="394" on="1"/>
        <pt x="463" y="394" on="1"/>
        <pt x="463" y="-155" on="1"/>
      </contour>
    </TTGlyph>
    <TTGlyph name="uni05DB" xMin="26" yMin="0" xMax="490" yMax="556">
      <contour>
        <pt x="36" y="0" on="1"/>
        <pt x="36" y="161" on="1"/>
        <pt x="195" y="161" on="1"/>
        <pt x="256" y="161" on="0"/>
        <pt x="314" y="216" on="0"/>
        <pt x="314" y="278" on="1"/>
        <pt x="314" y="343" on="0"/>
        <pt x="251" y="395" on="0"/>
        <pt x="185" y="395" on="1"/>
        <pt x="26" y="395" on="1"/>
        <pt x="26" y="556" on="1"/>
        <pt x="185" y="556" on="1"/>
        <pt x="345" y="556" on="0"/>
        <pt x="490" y="427" on="0"/>
        <pt x="490" y="278" on="1"/>
        <pt x="490" y="132" on="0"/>
        <pt x="350" y="0" on="0"/>
        <pt x="195" y="0" on="1"/>
      </contour>
    </TTGlyph>
    <TTGlyph name="uni05DC" xMin="26" yMin="-18" xMax="513" yMax="692">
      <contour>
        <pt x="156" y="-18" on="1"/>
        <pt x="126" y="134" on="1"/>
        <pt x="243" y="156" on="0"/>
        <pt x="337" y="241" on="0"/>
        <pt x="337" y="295" on="1"/>
        <pt x="337" y="356" on="0"/>
        <pt x="249" y="395" on="0"/>
        <pt x="157" y="395" on="1"/>
        <pt x="26" y="395" on="1"/>
        <pt x="26" y="692" on="1"/>
        <pt x="203" y="691" on="1"/>
        <pt x="202" y="556" on="1"/>
        <pt x="269" y="556" on="1"/>
        <pt x="385" y="556" on="0"/>
        <pt x="513" y="420" on="0"/>
        <pt x="513" y="305" on="1"/>
        <pt x="513" y="182" on="0"/>
        <pt x="333" y="14" on="0"/>
      </contour>
    </TTGlyph>
    <TTGlyph name="uni05DD" xMin="31" yMin="0" xMax="581" yMax="556">
      <contour>
        <pt x="31" y="0" on="1"/>
        <pt x="31" y="556" on="1"/>
        <pt x="305" y="556" on="1"/>
        <pt x="385" y="556" on="0"/>
        <pt x="510" y="485" on="0"/>
        <pt x="581" y="361" on="0"/>
        <pt x="581" y="281" on="1"/>
        <pt x="581" y="0" on="1"/>
      </contour>
      <contour>
        <pt x="207" y="161" on="1"/>
        <pt x="405" y="161" on="1"/>
        <pt x="405" y="281" on="1"/>
        <pt x="405" y="339" on="0"/>
        <pt x="353" y="395" on="0"/>
        <pt x="305" y="395" on="1"/>
        <pt x="207" y="395" on="1"/>
      </contour>
    </TTGlyph>
    <TTGlyph name="uni05DE" xMin="22" yMin="-15" xMax="666" yMax="566">
      <contour>
        <pt x="399" y="-15" on="1"/>
        <pt x="373" y="-15" on="0"/>
        <pt x="303" y="-6" on="0"/>
        <pt x="270" y="4" on="1"/>
        <pt x="300" y="163" on="1"/>
        <pt x="331" y="154" on="0"/>
        <pt x="369" y="146" on="0"/>
        <pt x="389" y="146" on="1"/>
        <pt x="441" y="146" on="0"/>
        <pt x="490" y="218" on="0"/>
        <pt x="490" y="268" on="1"/>
        <pt x="490" y="299" on="0"/>
        <pt x="469" y="359" on="0"/>
        <pt x="422" y="397" on="0"/>
        <pt x="383" y="397" on="1"/>
        <pt x="315" y="397" on="0"/>
        <pt x="244" y="237" on="0"/>
        <pt x="223" y="92" on="1"/>
        <pt x="211" y="0" on="1"/>
        <pt x="33" y="0" on="1"/>
        <pt x="48" y="106" on="1"/>
        <pt x="58" y="183" on="0"/>
        <pt x="91" y="311" on="0"/>
        <pt x="114" y="363" on="1"/>
        <pt x="75" y="387" on="0"/>
        <pt x="22" y="406" on="1"/>
        <pt x="60" y="565" on="1"/>
        <pt x="104" y="546" on="0"/>
        <pt x="168" y="505" on="0"/>
        <pt x="192" y="483" on="1"/>
        <pt x="272" y="566" on="0"/>
        <pt x="396" y="566" on="1"/>
        <pt x="480" y="566" on="0"/>
        <pt x="601" y="483" on="0"/>
        <pt x="666" y="347" on="0"/>
        <pt x="666" y="268" on="1"/>
        <pt x="666" y="188" on="0"/>
        <pt x="602" y="60" on="0"/>
        <pt x="483" y="-15" on="0"/>
      </contour>
    </TTGlyph>
    <TTGlyph name="uni05DF" xMin="25" yMin="-162" xMax="321" yMax="580">
      <contour>
        <pt x="145" y="-162" on="1"/>
        <pt x="145" y="230" on="1"/>
        <pt x="145" y="294" on="0"/>
        <pt x="121" y="366" on="0"/>
        <pt x="68" y="402" on="0"/>
        <pt x="25" y="412" on="1"/>
        <pt x="75" y="580" on="1"/>
        <pt x="144" y="560" on="0"/>
        <pt x="239" y="506" on="0"/>
        <pt x="296" y="427" on="0"/>
        <pt x="321" y="312" on="0"/>
        <pt x="321" y="230" on="1"/>
        <pt x="321" y="-162" on="1"/>
      </contour>
    </TTGlyph>
    <TTGlyph name="uni05E0" xMin="28" yMin="0" xMax="342" yMax="566">
      <contour>
        <pt x="29" y="0" on="1"/>
        <pt x="29" y="161" on="1"/>
        <pt x="166" y="161" on="1"/>
        <pt x="166" y="253" on="1"/>
        <pt x="166" y="326" on="0"/>
        <pt x="106" y="400" on="0"/>
        <pt x="28" y="409" on="1"/>
        <pt x="54" y="566" on="1"/>
        <pt x="164" y="547" on="0"/>
        <pt x="290" y="469" on="0"/>
        <pt x="342" y="343" on="0"/>
        <pt x="342" y="253" on="1"/>
        <pt x="342" y="0" on="1"/>
      </contour>
    </TTGlyph>
    <TTGlyph name="uni05E1" xMin="28" yMin="-5" xMax="653" yMax="556">
      <contour>
        <pt x="348" y="-5" on="1"/>
        <pt x="282" y="-5" on="0"/>
        <pt x="174" y="40" on="0"/>
        <pt x="96" y="119" on="0"/>
        <pt x="55" y="219" on="0"/>
        <pt x="55" y="275" on="1"/>
        <pt x="55" y="310" on="0"/>
        <pt x="70" y="367" on="0"/>
        <pt x="86" y="395" on="1"/>
        <pt x="28" y="395" on="1"/>
        <pt x="28" y="556" on="1"/>
        <pt x="332" y="556" on="1"/>
        <pt x="439" y="556" on="0"/>
        <pt x="582" y="483" on="0"/>
        <pt x="653" y="355" on="0"/>
        <pt x="653" y="273" on="1"/>
        <pt x="653" y="194" on="0"/>
        <pt x="576" y="68" on="0"/>
        <pt x="438" y="-5" on="0"/>
      </contour>
      <contour>
        <pt x="231" y="283" on="1"/>
        <pt x="231" y="227" on="0"/>
        <pt x="299" y="156" on="0"/>
        <pt x="353" y="156" on="1"/>
        <pt x="413" y="156" on="0"/>
        <pt x="477" y="226" on="0"/>
        <pt x="477" y="281" on="1"/>
        <pt x="477" y="313" on="0"/>
        <pt x="451" y="364" on="0"/>
        <pt x="388" y="395" on="0"/>
        <pt x="332" y="395" on="1"/>
        <pt x="270" y="395" on="1"/>
        <pt x="250" y="367" on="0"/>
        <pt x="231" y="314" on="0"/>
      </contour>
    </TTGlyph>
    <TTGlyph name="uni05E2" xMin="-1" yMin="-76" xMax="551" yMax="572">
      <contour>
        <pt x="72" y="-76" on="1"/>
        <pt x="15" y="83" on="1"/>
        <pt x="58" y="98" on="0"/>
        <pt x="129" y="123" on="0"/>
        <pt x="159" y="134" on="1"/>
        <pt x="123" y="234" on="0"/>
        <pt x="38" y="439" on="0"/>
        <pt x="-1" y="521" on="1"/>
        <pt x="155" y="572" on="1"/>
        <pt x="195" y="485" on="0"/>
        <pt x="267" y="293" on="0"/>
        <pt x="295" y="200" on="1"/>
        <pt x="317" y="217" on="0"/>
        <pt x="330" y="237" on="1"/>
        <pt x="346" y="263" on="0"/>
        <pt x="365" y="315" on="0"/>
        <pt x="373" y="382" on="0"/>
        <pt x="375" y="482" on="0"/>
        <pt x="374" y="556" on="1"/>
        <pt x="550" y="558" on="1"/>
        <pt x="551" y="481" on="0"/>
        <pt x="549" y="364" on="0"/>
        <pt x="536" y="271" on="0"/>
        <pt x="506" y="188" on="0"/>
        <pt x="479" y="146" on="1"/>
        <pt x="444" y="92" on="0"/>
        <pt x="328" y="19" on="0"/>
        <pt x="170" y="-42" on="0"/>
      </contour>
    </TTGlyph>
    <TTGlyph name="uni05E3" xMin="22" yMin="-164" xMax="573" yMax="573">
      <contour>
        <pt x="397" y="-164" on="1"/>
        <pt x="397" y="282" on="1"/>
        <pt x="397" y="345" on="0"/>
        <pt x="345" y="412" on="0"/>
        <pt x="293" y="412" on="1"/>
        <pt x="252" y="412" on="0"/>
        <pt x="198" y="361" on="0"/>
        <pt x="198" y="315" on="1"/>
        <pt x="198" y="268" on="0"/>
        <pt x="256" y="218" on="0"/>
        <pt x="297" y="211" on="1"/>
        <pt x="282" y="58" on="1"/>
        <pt x="208" y="62" on="0"/>
        <pt x="90" y="119" on="0"/>
        <pt x="22" y="228" on="0"/>
        <pt x="22" y="311" on="1"/>
        <pt x="22" y="392" on="0"/>
        <pt x="84" y="509" on="0"/>
        <pt x="200" y="573" on="0"/>
        <pt x="279" y="573" on="1"/>
        <pt x="370" y="573" on="0"/>
        <pt x="502" y="501" on="0"/>
        <pt x="573" y="370" on="0"/>
        <pt x="573" y="282" on="1"/>
        <pt x="573" y="-164" on="1"/>
      </contour>
    </TTGlyph>
    <TTGlyph name="uni05E4" xMin="24" yMin="-17" xMax="593" yMax="577">
      <contour>
        <pt x="293" y="-17" on="1"/>
        <pt x="229" y="-17" on="0"/>
        <pt x="98" y="2" on="0"/>
        <pt x="29" y="27" on="1"/>
        <pt x="64" y="186" on="1"/>
        <pt x="132" y="159" on="0"/>
        <pt x="245" y="144" on="0"/>
        <pt x="293" y="144" on="1"/>
        <pt x="323" y="144" on="0"/>
        <pt x="380" y="177" on="0"/>
        <pt x="417" y="238" on="0"/>
        <pt x="417" y="280" on="1"/>
        <pt x="417" y="327" on="0"/>
        <pt x="377" y="387" on="0"/>
        <pt x="316" y="415" on="0"/>
        <pt x="282" y="415" on="1"/>
        <pt x="262" y="415" on="0"/>
        <pt x="214" y="406" on="0"/>
        <pt x="179" y="386" on="0"/>
        <pt x="179" y="371" on="1"/>
        <pt x="179" y="350" on="0"/>
        <pt x="225" y="329" on="0"/>
        <pt x="262" y="327" on="1"/>
        <pt x="243" y="203" on="1"/>
        <pt x="183" y="208" on="0"/>
        <pt x="83" y="247" on="0"/>
        <pt x="24" y="327" on="0"/>
        <pt x="24" y="394" on="1"/>
        <pt x="24" y="455" on="0"/>
        <pt x="100" y="536" on="0"/>
        <pt x="224" y="577" on="0"/>
        <pt x="296" y="577" on="1"/>
        <pt x="382" y="577" on="0"/>
        <pt x="516" y="504" on="0"/>
        <pt x="593" y="373" on="0"/>
        <pt x="593" y="287" on="1"/>
        <pt x="593" y="227" on="0"/>
        <pt x="550" y="118" on="0"/>
        <pt x="471" y="33" on="0"/>
        <pt x="360" y="-17" on="0"/>
      </contour>
    </TTGlyph>
    <TTGlyph name="uni05E5" xMin="11" yMin="-155" xMax="507" yMax="572">
      <contour>
        <pt x="121" y="-155" on="1"/>
        <pt x="121" y="151" on="1"/>
        <pt x="121" y="216" on="0"/>
        <pt x="97" y="329" on="0"/>
        <pt x="48" y="448" on="0"/>
        <pt x="11" y="521" on="1"/>
        <pt x="164" y="572" on="1"/>
        <pt x="196" y="514" on="0"/>
        <pt x="251" y="400" on="0"/>
        <pt x="269" y="340" on="1"/>
        <pt x="298" y="385" on="0"/>
        <pt x="326" y="495" on="0"/>
        <pt x="334" y="562" on="1"/>
        <pt x="507" y="531" on="1"/>
        <pt x="493" y="398" on="0"/>
        <pt x="383" y="204" on="0"/>
        <pt x="297" y="141" on="1"/>
        <pt x="297" y="-155" on="1"/>
      </contour>
    </TTGlyph>
    <TTGlyph name="uni05E6" xMin="14" yMin="0" xMax="536" yMax="568">
      <contour>
        <pt x="36" y="0" on="1"/>
        <pt x="36" y="161" on="1"/>
        <pt x="283" y="161" on="1"/>
        <pt x="250" y="185" on="0"/>
        <pt x="175" y="243" on="0"/>
        <pt x="146" y="278" on="1"/>
        <pt x="126" y="304" on="0"/>
        <pt x="95" y="347" on="0"/>
        <pt x="68" y="395" on="0"/>
        <pt x="36" y="460" on="0"/>
        <pt x="14" y="507" on="1"/>
        <pt x="159" y="568" on="1"/>
        <pt x="188" y="516" on="0"/>
        <pt x="228" y="446" on="0"/>
        <pt x="265" y="392" on="0"/>
        <pt x="288" y="363" on="1"/>
        <pt x="295" y="354" on="0"/>
        <pt x="303" y="344" on="1"/>
        <pt x="339" y="386" on="0"/>
        <pt x="376" y="487" on="0"/>
        <pt x="390" y="562" on="1"/>
        <pt x="536" y="521" on="1"/>
        <pt x="521" y="438" on="0"/>
        <pt x="457" y="305" on="0"/>
        <pt x="398" y="252" on="1"/>
        <pt x="441" y="214" on="0"/>
        <pt x="505" y="150" on="0"/>
        <pt x="505" y="113" on="1"/>
        <pt x="505" y="0" on="1"/>
      </contour>
    </TTGlyph>
    <TTGlyph name="uni05E7" xMin="31" yMin="-185" xMax="595" yMax="554">
      <contour>
        <pt x="300" y="-20" on="1"/>
        <pt x="254" y="119" on="1"/>
        <pt x="336" y="144" on="0"/>
        <pt x="419" y="234" on="0"/>
        <pt x="419" y="292" on="1"/>
        <pt x="419" y="346" on="0"/>
        <pt x="362" y="394" on="0"/>
        <pt x="317" y="394" on="1"/>
        <pt x="31" y="394" on="1"/>
        <pt x="31" y="554" on="1"/>
        <pt x="317" y="554" on="1"/>
        <pt x="400" y="554" on="0"/>
        <pt x="525" y="491" on="0"/>
        <pt x="595" y="374" on="0"/>
        <pt x="595" y="292" on="1"/>
        <pt x="595" y="181" on="0"/>
        <pt x="437" y="20" on="0"/>
      </contour>
      <contour>
        <pt x="33" y="-185" on="1"/>
        <pt x="33" y="312" on="1"/>
        <pt x="209" y="312" on="1"/>
        <pt x="209" y="-185" on="1"/>
      </contour>
    </TTGlyph>
    <TTGlyph name="uni05E8" xMin="16" yMin="0" xMax="478" yMax="556">
      <contour>
        <pt x="302" y="0" on="1"/>
        <pt x="302" y="262" on="1"/>
        <pt x="302" y="319" on="0"/>
        <pt x="243" y="380" on="0"/>
        <pt x="180" y="380" on="1"/>
        <pt x="16" y="380" on="1"/>
        <pt x="16" y="556" on="1"/>
        <pt x="196" y="556" on="1"/>
        <pt x="331" y="556" on="0"/>
        <pt x="478" y="409" on="0"/>
        <pt x="478" y="278" on="1"/>
        <pt x="478" y="0" on="1"/>
      </contour>
    </TTGlyph>
    <TTGlyph name="uni05E9" xMin="23" yMin="-11" xMax="734" yMax="556">
      <contour>
        <pt x="373" y="-11" on="1"/>
        <pt x="286" y="-11" on="0"/>
        <pt x="164" y="49" on="0"/>
        <pt x="85" y="156" on="0"/>
        <pt x="40" y="300" on="0"/>
        <pt x="23" y="467" on="0"/>
        <pt x="23" y="556" on="1"/>
        <pt x="199" y="556" on="1"/>
        <pt x="199" y="497" on="0"/>
        <pt x="204" y="377" on="0"/>
        <pt x="214" y="325" on="1"/>
        <pt x="237" y="332" on="0"/>
        <pt x="267" y="360" on="0"/>
        <pt x="275" y="375" on="1"/>
        <pt x="286" y="394" on="0"/>
        <pt x="296" y="476" on="0"/>
        <pt x="296" y="556" on="1"/>
        <pt x="468" y="556" on="1"/>
        <pt x="468" y="477" on="0"/>
        <pt x="449" y="351" on="0"/>
        <pt x="425" y="309" on="1"/>
        <pt x="403" y="270" on="0"/>
        <pt x="320" y="213" on="0"/>
        <pt x="260" y="201" on="1"/>
        <pt x="278" y="177" on="0"/>
        <pt x="326" y="150" on="0"/>
        <pt x="358" y="150" on="1"/>
        <pt x="422" y="150" on="0"/>
        <pt x="500" y="204" on="0"/>
        <pt x="541" y="309" on="0"/>
        <pt x="557" y="460" on="0"/>
        <pt x="558" y="556" on="1"/>
        <pt x="734" y="556" on="1"/>
        <pt x="732" y="374" on="0"/>
        <pt x="664" y="121" on="0"/>
        <pt x="508" y="-10" on="0"/>
      </contour>
    </TTGlyph>
    <TTGlyph name="uni05E9.forDagesh" xMin="23" yMin="-11" xMax="734" yMax="556">
      <contour>
        <pt x="373" y="-11" on="1"/>
        <pt x="286" y="-11" on="0"/>
        <pt x="164" y="49" on="0"/>
        <pt x="85" y="156" on="0"/>
        <pt x="40" y="300" on="0"/>
        <pt x="23" y="467" on="0"/>
        <pt x="23" y="556" on="1"/>
        <pt x="199" y="556" on="1"/>
        <pt x="199" y="497" on="0"/>
        <pt x="204" y="377" on="0"/>
        <pt x="214" y="325" on="1"/>
        <pt x="237" y="332" on="0"/>
        <pt x="267" y="360" on="0"/>
        <pt x="275" y="375" on="1"/>
        <pt x="286" y="394" on="0"/>
        <pt x="296" y="476" on="0"/>
        <pt x="296" y="556" on="1"/>
        <pt x="468" y="556" on="1"/>
        <pt x="468" y="477" on="0"/>
        <pt x="440" y="389" on="0"/>
        <pt x="420" y="361" on="1"/>
        <pt x="399" y="334" on="0"/>
        <pt x="300" y="279" on="0"/>
        <pt x="227" y="270" on="1"/>
        <pt x="244" y="216" on="0"/>
        <pt x="306" y="150" on="0"/>
        <pt x="358" y="150" on="1"/>
        <pt x="422" y="150" on="0"/>
        <pt x="500" y="204" on="0"/>
        <pt x="541" y="309" on="0"/>
        <pt x="557" y="460" on="0"/>
        <pt x="558" y="556" on="1"/>
        <pt x="734" y="556" on="1"/>
        <pt x="732" y="374" on="0"/>
        <pt x="664" y="121" on="0"/>
        <pt x="508" y="-10" on="0"/>
      </contour>
    </TTGlyph>
    <TTGlyph name="uni05EA" xMin="26" yMin="0" xMax="632" yMax="556">
      <contour>
        <pt x="26" y="0" on="1"/>
        <pt x="26" y="169" on="1"/>
        <pt x="85" y="169" on="1"/>
        <pt x="82" y="202" on="0"/>
        <pt x="80" y="263" on="0"/>
        <pt x="83" y="293" on="1"/>
        <pt x="85" y="320" on="0"/>
        <pt x="92" y="372" on="0"/>
        <pt x="97" y="395" on="1"/>
        <pt x="37" y="395" on="1"/>
        <pt x="37" y="556" on="1"/>
        <pt x="342" y="556" on="1"/>
        <pt x="489" y="556" on="0"/>
        <pt x="632" y="406" on="0"/>
        <pt x="632" y="257" on="1"/>
        <pt x="632" y="0" on="1"/>
        <pt x="456" y="0" on="1"/>
        <pt x="456" y="257" on="1"/>
        <pt x="456" y="312" on="0"/>
        <pt x="438" y="372" on="0"/>
        <pt x="389" y="395" on="0"/>
        <pt x="342" y="395" on="1"/>
        <pt x="272" y="395" on="1"/>
        <pt x="267" y="368" on="0"/>
        <pt x="260" y="312" on="0"/>
        <pt x="258" y="284" on="1"/>
        <pt x="256" y="235" on="0"/>
        <pt x="268" y="104" on="0"/>
        <pt x="280" y="0" on="1"/>
      </contour>
    </TTGlyph>
    <TTGlyph name="uni05F3" xMin="19" yMin="319" xMax="250" yMax="622">
      <contour>
        <pt x="19" y="319" on="1"/>
        <pt x="73" y="622" on="1"/>
        <pt x="250" y="622" on="1"/>
        <pt x="165" y="319" on="1"/>
      </contour>
    </TTGlyph>
    <TTGlyph name="uni05F4" xMin="20" yMin="319" xMax="467" yMax="622">
      <contour>
        <pt x="236" y="319" on="1"/>
        <pt x="289" y="622" on="1"/>
        <pt x="467" y="622" on="1"/>
        <pt x="382" y="319" on="1"/>
      </contour>
      <contour>
        <pt x="20" y="319" on="1"/>
        <pt x="73" y="622" on="1"/>
        <pt x="251" y="622" on="1"/>
        <pt x="166" y="319" on="1"/>
      </contour>
    </TTGlyph>
    <TTGlyph name="uni20AA" xMin="32" yMin="0" xMax="797" yMax="556">
      <contour>
        <pt x="249" y="0" on="1"/>
        <pt x="249" y="315" on="1"/>
        <pt x="380" y="315" on="1"/>
        <pt x="380" y="176" on="1"/>
        <pt x="529" y="176" on="1"/>
        <pt x="585" y="176" on="0"/>
        <pt x="636" y="232" on="0"/>
        <pt x="636" y="296" on="1"/>
        <pt x="636" y="556" on="1"/>
        <pt x="797" y="556" on="1"/>
        <pt x="797" y="280" on="1"/>
        <pt x="797" y="139" on="0"/>
        <pt x="663" y="0" on="0"/>
        <pt x="553" y="0" on="1"/>
      </contour>
      <contour>
        <pt x="32" y="0" on="1"/>
        <pt x="32" y="556" on="1"/>
        <pt x="355" y="556" on="1"/>
        <pt x="576" y="556" on="0"/>
        <pt x="576" y="322" on="1"/>
        <pt x="576" y="240" on="1"/>
        <pt x="445" y="240" on="1"/>
        <pt x="445" y="282" on="1"/>
        <pt x="445" y="334" on="0"/>
        <pt x="399" y="380" on="0"/>
        <pt x="345" y="380" on="1"/>
        <pt x="193" y="380" on="1"/>
        <pt x="193" y="0" on="1"/>
      </contour>
    </TTGlyph>
    <TTGlyph name="uni2196" xMin="39" yMin="37" xMax="560" yMax="557">
      <contour>
        <pt x="39" y="132" on="1"/>
        <pt x="39" y="557" on="1"/>
        <pt x="465" y="557" on="1"/>
        <pt x="465" y="387" on="1"/>
        <pt x="318" y="392" on="1"/>
        <pt x="560" y="151" on="1"/>
        <pt x="446" y="37" on="1"/>
        <pt x="200" y="283" on="1"/>
        <pt x="209" y="132" on="1"/>
      </contour>
    </TTGlyph>
    <TTGlyph name="uni2197" xMin="22" yMin="37" xMax="542" yMax="557">
      <contour>
        <pt x="136" y="37" on="1"/>
        <pt x="22" y="150" on="1"/>
        <pt x="264" y="392" on="1"/>
        <pt x="117" y="387" on="1"/>
        <pt x="117" y="557" on="1"/>
        <pt x="542" y="557" on="1"/>
        <pt x="542" y="131" on="1"/>
        <pt x="372" y="131" on="1"/>
        <pt x="382" y="283" on="1"/>
      </contour>
    </TTGlyph>
    <TTGlyph name="uni2198" xMin="117" yMin="0" xMax="543" yMax="507">
      <contour>
        <pt x="117" y="151" on="1"/>
        <pt x="291" y="153" on="1"/>
        <pt x="118" y="311" on="1"/>
        <pt x="123" y="507" on="1"/>
        <pt x="355" y="295" on="1"/>
        <pt x="373" y="359" on="1"/>
        <pt x="524" y="425" on="1"/>
        <pt x="543" y="85" on="1"/>
        <pt x="415" y="53" on="1"/>
        <pt x="415" y="41" on="1"/>
        <pt x="404" y="51" on="1"/>
        <pt x="203" y="0" on="1"/>
      </contour>
    </TTGlyph>
    <TTGlyph name="uni2199" xMin="56" yMin="41" xMax="462" yMax="507">
      <contour>
        <pt x="377" y="151" on="1"/>
        <pt x="377" y="86" on="1"/>
        <pt x="214" y="86" on="1"/>
        <pt x="165" y="41" on="1"/>
        <pt x="164" y="86" on="1"/>
        <pt x="56" y="86" on="1"/>
        <pt x="56" y="359" on="1"/>
        <pt x="274" y="359" on="1"/>
        <pt x="273" y="339" on="1"/>
        <pt x="457" y="507" on="1"/>
        <pt x="462" y="311" on="1"/>
        <pt x="269" y="135" on="1"/>
      </contour>
    </TTGlyph>
    <TTGlyph name="uniFB2A" xMin="23" yMin="-11" xMax="734" yMax="725">
      <component glyphName="uni05E9" x="0" y="0" flags="0x204"/>
      <component glyphName="uni05C1" x="725" y="0" flags="0x4"/>
    </TTGlyph>
    <TTGlyph name="uniFB2B" xMin="23" yMin="-11" xMax="734" yMax="725">
      <component glyphName="uni05E9" x="0" y="0" flags="0x204"/>
      <component glyphName="uni05C2" x="4" y="0" flags="0x4"/>
    </TTGlyph>
    <TTGlyph name="uniFB2C" xMin="23" yMin="-11" xMax="734" yMax="725">
      <component glyphName="uni05E9.forDagesh" x="0" y="0" flags="0x204"/>
      <component glyphName="uni05BC" x="373" y="55" flags="0x4"/>
      <component glyphName="uni05C1" x="725" y="0" flags="0x4"/>
    </TTGlyph>
    <TTGlyph name="uniFB2D" xMin="23" yMin="-11" xMax="734" yMax="725">
      <component glyphName="uni05E9.forDagesh" x="0" y="0" flags="0x204"/>
      <component glyphName="uni05BC" x="373" y="55" flags="0x4"/>
      <component glyphName="uni05C2" x="4" y="0" flags="0x4"/>
    </TTGlyph>
    <TTGlyph name="uniFB2E" xMin="34" yMin="-168" xMax="589" yMax="586">
      <component glyphName="uni05D0" x="0" y="0" flags="0x204"/>
      <component glyphName="uni05B7" x="313" y="0" flags="0x4"/>
    </TTGlyph>
    <TTGlyph name="uniFB2F" xMin="34" yMin="-276" xMax="589" yMax="586">
      <component glyphName="uni05D0" x="0" y="0" flags="0x204"/>
      <component glyphName="uni05B8" x="313" y="0" flags="0x4"/>
    </TTGlyph>
    <TTGlyph name="uniFB30" xMin="34" yMin="-15" xMax="589" yMax="586">
      <component glyphName="uni05D0.forDagesh" x="0" y="0" flags="0x4"/>
      <component glyphName="uni05BC" x="247" y="-132" flags="0x4"/>
    </TTGlyph>
    <TTGlyph name="uniFB31" xMin="26" yMin="0" xMax="519" yMax="556">
      <component glyphName="uni05D1" x="0" y="0" flags="0x204"/>
      <component glyphName="uni05BC" x="103" y="63" flags="0x4"/>
    </TTGlyph>
    <TTGlyph name="uniFB32" xMin="13" yMin="-13" xMax="370" yMax="569">
      <component glyphName="uni05D2" x="0" y="0" flags="0x204"/>
      <component glyphName="uni05BC" x="27" y="64" flags="0x4"/>
    </TTGlyph>
    <TTGlyph name="uniFB33" xMin="19" yMin="3" xMax="517" yMax="556">
      <component glyphName="uni05D3" x="0" y="0" flags="0x204"/>
      <component glyphName="uni05BC" x="94" y="18" flags="0x4"/>
    </TTGlyph>
    <TTGlyph name="uniFB34" xMin="31" yMin="0" xMax="586" yMax="556">
      <component glyphName="uni05D4" x="0" y="0" flags="0x204"/>
      <component glyphName="uni05BC" x="262" y="25" flags="0x4"/>
    </TTGlyph>
    <TTGlyph name="uniFB35" xMin="-30" yMin="0" xMax="292" yMax="564">
      <component glyphName="uni05D5" x="0" y="0" flags="0x204"/>
      <component glyphName="uni05BC" x="-15" y="18" flags="0x4"/>
    </TTGlyph>
    <TTGlyph name="uniFB36" xMin="-54" yMin="-22" xMax="340" yMax="556">
      <component glyphName="uni05D6" x="0" y="0" flags="0x4"/>
      <component glyphName="uni05BC" x="-40" y="48" flags="0x4"/>
    </TTGlyph>
    <TTGlyph name="uniFB38" xMin="30" yMin="-17" xMax="646" yMax="573">
      <component glyphName="uni05D8" x="0" y="0" flags="0x204"/>
      <component glyphName="uni05BC" x="288" y="62" flags="0x4"/>
    </TTGlyph>
    <TTGlyph name="uniFB39" xMin="-19" yMin="135" xMax="318" yMax="570">
      <component glyphName="uni05D9" x="0" y="0" flags="0x4"/>
      <component glyphName="uni05BC" x="-5" y="75" flags="0x4"/>
    </TTGlyph>
    <TTGlyph name="uniFB3A" xMin="22" yMin="-155" xMax="528" yMax="556">
      <component glyphName="uni05DA" x="0" y="0" flags="0x204"/>
      <component glyphName="uni05BC" x="105" y="37" flags="0x4"/>
    </TTGlyph>
    <TTGlyph name="uniFB3B" xMin="26" yMin="0" xMax="490" yMax="556">
      <component glyphName="uni05DB" x="0" y="0" flags="0x204"/>
      <component glyphName="uni05BC" x="108" y="63" flags="0x4"/>
    </TTGlyph>
    <TTGlyph name="uniFB3C" xMin="26" yMin="-18" xMax="513" yMax="692">
      <component glyphName="uni05DC" x="0" y="0" flags="0x4"/>
      <component glyphName="uni05BC" x="124" y="66" flags="0x4"/>
    </TTGlyph>
    <TTGlyph name="uniFB3E" xMin="22" yMin="-15" xMax="666" yMax="566">
      <component glyphName="uni05DE" x="0" y="0" flags="0x204"/>
      <component glyphName="uni05BC" x="331" y="58" flags="0x4"/>
    </TTGlyph>
    <TTGlyph name="uniFB40" xMin="8" yMin="0" xMax="342" yMax="566">
      <component glyphName="uni05E0" x="0" y="0" flags="0x204"/>
      <component glyphName="uni05BC" x="22" y="63" flags="0x4"/>
    </TTGlyph>
    <TTGlyph name="uniFB41" xMin="28" yMin="-5" xMax="653" yMax="556">
      <component glyphName="uni05E1" x="0" y="0" flags="0x204"/>
      <component glyphName="uni05BC" x="305" y="65" flags="0x4"/>
    </TTGlyph>
    <TTGlyph name="uniFB43" xMin="22" yMin="-164" xMax="573" yMax="573">
      <component glyphName="uni05E3" x="0" y="0" flags="0x4"/>
      <component glyphName="uni05BC" x="269" y="61" flags="0x4"/>
    </TTGlyph>
    <TTGlyph name="uniFB44" xMin="24" yMin="-17" xMax="593" yMax="577">
      <component glyphName="uni05E4" x="0" y="0" flags="0x4"/>
      <component glyphName="uni05BC" x="277" y="63" flags="0x4"/>
    </TTGlyph>
    <TTGlyph name="uniFB46" xMin="-1" yMin="0" xMax="536" yMax="568">
      <component glyphName="uni05E6" x="0" y="0" flags="0x4"/>
      <component glyphName="uni05BC" x="13" y="39" flags="0x4"/>
    </TTGlyph>
    <TTGlyph name="uniFB47" xMin="31" yMin="-185" xMax="595" yMax="554">
      <component glyphName="uni05E7" x="0" y="0" flags="0x204"/>
      <component glyphName="uni05BC" x="258" y="62" flags="0x4"/>
    </TTGlyph>
    <TTGlyph name="uniFB48" xMin="16" yMin="0" xMax="478" yMax="556">
      <component glyphName="uni05E8" x="0" y="0" flags="0x204"/>
      <component glyphName="uni05BC" x="112" y="19" flags="0x4"/>
    </TTGlyph>
    <TTGlyph name="uniFB49" xMin="23" yMin="-11" xMax="734" yMax="556">
      <component glyphName="uni05E9.forDagesh" x="0" y="0" flags="0x204"/>
      <component glyphName="uni05BC" x="373" y="55" flags="0x4"/>
    </TTGlyph>
    <TTGlyph name="uniFB4A" xMin="26" yMin="0" xMax="632" yMax="556">
      <component glyphName="uni05EA" x="0" y="0" flags="0x204"/>
      <component glyphName="uni05BC" x="306" y="33" flags="0x4"/>
    </TTGlyph>
    <TTGlyph name="uniFB4B" xMin="24" yMin="0" xMax="292" yMax="725">
      <component glyphName="uni05D5" x="0" y="0" flags="0x204"/>
      <component glyphName="uni05B9" x="185" y="0" flags="0x4"/>
    </TTGlyph>
    <TTGlyph name="zero" xMin="21" yMin="-26" xMax="534" yMax="625">
      <contour>
        <pt x="277" y="-26" on="1"/>
        <pt x="202" y="-26" on="0"/>
        <pt x="86" y="61" on="0"/>
        <pt x="21" y="211" on="0"/>
        <pt x="21" y="303" on="1"/>
        <pt x="21" y="393" on="0"/>
        <pt x="87" y="539" on="0"/>
        <pt x="203" y="625" on="0"/>
        <pt x="277" y="625" on="1"/>
        <pt x="353" y="625" on="0"/>
        <pt x="468" y="539" on="0"/>
        <pt x="534" y="393" on="0"/>
        <pt x="534" y="303" on="1"/>
        <pt x="534" y="210" on="0"/>
        <pt x="468" y="61" on="0"/>
        <pt x="353" y="-26" on="0"/>
      </contour>
      <contour>
        <pt x="277" y="150" on="1"/>
        <pt x="320" y="150" on="0"/>
        <pt x="373" y="230" on="0"/>
        <pt x="373" y="303" on="1"/>
        <pt x="373" y="373" on="0"/>
        <pt x="320" y="449" on="0"/>
        <pt x="277" y="449" on="1"/>
        <pt x="235" y="449" on="0"/>
        <pt x="182" y="372" on="0"/>
        <pt x="182" y="303" on="1"/>
        <pt x="182" y="229" on="0"/>
        <pt x="235" y="150" on="0"/>
      </contour>
    </TTGlyph>
</ttFont>
